<svg width="32" height="32" viewBox="0 0 32 32" fill="none" xmlns="http://www.w3.org/2000/svg">
<g clip-path="url(#clip0_64_684)">
<path d="M23.9351 18.6179C25.9587 16.5102 27.0467 13.739 26.9985 10.8149C26.8991 4.78184 21.9088 -0.0677226 15.8695 0.000964876C9.848 0.0710274 5 4.96721 5 11.0002C5 13.8484 6.08469 16.5498 8.05437 18.607C9.07581 19.6738 9.75131 21.0421 9.95744 22.6908C8.89131 23.2348 8.66944 24.661 9.52694 25.5002C8.46662 26.5379 9.10225 28.3536 10.5859 28.4923C11.0812 30.5546 12.9249 32.0002 15.0355 32.0002H16.9644C19.077 32.0002 20.9192 30.5528 21.4141 28.4923C22.8969 28.3537 23.5341 26.5387 22.4731 25.5002C23.332 24.6596 23.1072 23.2341 22.0426 22.6908C22.2469 21.0575 22.9075 19.6882 23.9351 18.6179ZM8.77662 17.9153C6.98606 16.0453 6 13.5894 6 11.0002C6 5.54996 10.4326 1.06428 15.8811 1.0009C21.3671 0.938652 25.9082 5.34696 25.9986 10.8314C26.0424 13.4899 25.0534 16.0093 23.2137 17.9253C22.0661 19.1206 21.2824 20.7048 21.0586 22.5002H16.5V17.0002H18C21.0327 17.0002 23.5 14.5328 23.5 11.5002V10.0002C23.5 9.72403 23.2761 9.50015 23 9.50015H21C18.7841 9.50015 16.8702 10.8175 16 12.7102C15.1298 10.8176 13.2159 9.50021 11 9.50021H9C8.72388 9.50021 8.5 9.72409 8.5 10.0002V11.5002C8.5 14.5329 10.9673 17.0002 14 17.0002H15.5V22.5002H10.9414C10.7144 20.6881 9.91781 19.1072 8.77662 17.9153ZM20.3763 12.671C20.1944 12.4631 19.8784 12.4422 19.6708 12.624L16.5 15.3983V15.0002C16.5 12.5189 18.5187 10.5002 21 10.5002H22.5V11.5002C22.5 13.9815 20.4813 16.0002 18 16.0002H17.3307L20.3293 13.3765C20.5371 13.1947 20.5581 12.8788 20.3763 12.671ZM15.5 15.3983L12.3293 12.6239C12.1214 12.442 11.8056 12.4631 11.6237 12.6709C11.4418 12.8787 11.4629 13.1946 11.6707 13.3765L14.6692 16.0002H14C11.5187 16.0002 9.5 13.9815 9.5 11.5002V10.5002H11C13.4813 10.5002 15.5 12.5189 15.5 15.0002V15.3983ZM16.9645 31.0002H15.0356C13.4653 31.0002 12.0891 29.9592 11.6254 28.5002H20.3746C19.9109 29.9592 18.5348 31.0002 16.9645 31.0002ZM22 26.7502C22 27.1638 21.6636 27.5002 21.25 27.5002C20.6406 27.5002 11.1541 27.5002 10.75 27.5002C10.3364 27.5002 10 27.1638 10 26.7502C10 26.3367 10.3364 26.0002 10.75 26.0002H21.25C21.6636 26.0002 22 26.3367 22 26.7502ZM10.75 25.0002C10.3364 25.0002 10 24.6638 10 24.2502C10 23.8367 10.3364 23.5002 10.75 23.5002H21.25C21.6636 23.5002 22 23.8367 22 24.2502C22 24.6638 21.6636 25.0002 21.25 25.0002H10.75Z" fill="#D97706"/>
<path d="M3.5 11C3.5 10.7239 3.27612 10.5 3 10.5H0.5C0.223875 10.5 0 10.7239 0 11C0 11.2761 0.223875 11.5 0.5 11.5H3C3.27612 11.5 3.5 11.2761 3.5 11Z" fill="#D97706"/>
<path d="M4.49167 17.067L2.3266 18.317C2.08748 18.4551 2.00554 18.7609 2.1436 19C2.28192 19.2395 2.58773 19.3209 2.8266 19.183L4.99167 17.933C5.23079 17.7949 5.31273 17.4891 5.17467 17.25C5.03654 17.0109 4.73079 16.9291 4.49167 17.067Z" fill="#D97706"/>
<path d="M2.32665 3.68288C4.64421 5.02088 4.55177 4.99995 4.74127 4.99995C5.25202 4.99995 5.43283 4.32151 4.99171 4.06682L2.82665 2.81682C2.58746 2.67876 2.28177 2.7607 2.14364 2.99982C2.00552 3.23901 2.08746 3.54482 2.32665 3.68288Z" fill="#D97706"/>
<path d="M31.5 10.5H29C28.7239 10.5 28.5 10.7239 28.5 11C28.5 11.2761 28.7239 11.5 29 11.5H31.5C31.7761 11.5 32 11.2761 32 11C32 10.7239 31.7761 10.5 31.5 10.5Z" fill="#D97706"/>
<path d="M29.6734 18.3169L27.5083 17.0669C27.2692 16.9287 26.9634 17.0107 26.8252 17.2499C26.6872 17.489 26.7692 17.7948 27.0083 17.9329L29.1734 19.1829C29.4115 19.3204 29.7177 19.24 29.8565 18.9999C29.9945 18.7607 29.9126 18.4549 29.6734 18.3169Z" fill="#D97706"/>
<path d="M27.2588 4.99995C27.4493 4.99995 27.3588 5.0192 29.6734 3.68289C29.9126 3.54483 29.9946 3.23902 29.8565 2.99989C29.7184 2.76083 29.4127 2.67864 29.1734 2.81689L27.0083 4.06689C26.5664 4.32202 26.7488 4.99995 27.2588 4.99995Z" fill="#D97706"/>
</g>
<defs>
<clipPath id="clip0_64_684">
<rect width="32" height="32" fill="white"/>
</clipPath>
</defs>
</svg>
