<svg width="32" height="32" viewBox="0 0 32 32" fill="none" xmlns="http://www.w3.org/2000/svg">
<g clip-path="url(#clip0_64_677)">
<path d="M26.707 12C26.3816 11.69 25.9494 11.5171 25.5 11.5171C25.0506 11.5171 24.6184 11.69 24.293 12L20.54 15.753C21.2866 14.3301 21.8139 12.8025 22.104 11.222L22.492 9.0895C22.5114 8.98299 22.4957 8.87305 22.4473 8.77621C22.3989 8.67938 22.3203 8.60087 22.2235 8.5525L21.4795 8.1805C20.5203 7.69947 19.6707 7.02549 18.9841 6.20081C18.2976 5.37613 17.7887 4.41852 17.4895 3.388C17.378 1.7345 14.8445 0.5 11.5 0.5C8.15549 0.5 5.62199 1.7345 5.51049 3.388C5.21127 4.41852 4.70242 5.37613 4.01583 6.20081C3.32924 7.02549 2.47971 7.69947 1.52049 8.1805L0.776487 8.5525C0.679626 8.60087 0.601083 8.67938 0.552665 8.77621C0.504246 8.87305 0.488568 8.98299 0.507987 9.0895L0.896487 11.227C1.34553 13.6728 2.35635 15.9809 3.84933 17.9695C5.34232 19.9581 7.27666 21.5728 9.49999 22.6865V25.5715C7.69349 25.7035 4.49999 26.1295 4.49999 27.5V29.5C4.49999 31.444 10.7835 31.5 11.5 31.5C12.2165 31.5 18.5 31.444 18.5 29.5V27.5C18.5 26.1295 15.3065 25.7035 13.5 25.5715V22.6875C15.9067 21.4786 17.971 19.6841 19.503 17.469C19.503 17.4795 19.5 17.4895 19.5 17.5C19.4993 17.7243 19.5432 17.9464 19.629 18.1536C19.7148 18.3608 19.8409 18.5489 20 18.707L23.5 22.207V25.621C22.174 25.7885 20 26.253 20 27.5V29.5C20 30.874 22.85 31.5 25.5 31.5C28.15 31.5 31 30.874 31 29.5V27.5C31 26.25 28.8205 25.788 27.5 25.621V22.207L31 18.707C31.3201 18.3869 31.4999 17.9527 31.4999 17.5C31.4999 17.0473 31.3201 16.6131 31 16.293L26.707 12ZM17 12C17 12.0989 16.9707 12.1956 16.9157 12.2778C16.8608 12.36 16.7827 12.4241 16.6913 12.4619C16.6 12.4998 16.4994 12.5097 16.4024 12.4904C16.3055 12.4711 16.2164 12.4235 16.1464 12.3536C16.0765 12.2836 16.0289 12.1945 16.0096 12.0975C15.9903 12.0006 16.0002 11.9 16.038 11.8087C16.0759 11.7173 16.14 11.6392 16.2222 11.5843C16.3044 11.5293 16.4011 11.5 16.5 11.5C16.6326 11.5 16.7598 11.5527 16.8535 11.6464C16.9473 11.7402 17 11.8674 17 12ZM16.8095 10.533C16.7078 10.5111 16.604 10.5 16.5 10.5C16.1211 10.501 15.7568 10.6457 15.4804 10.9047C15.204 11.1638 15.036 11.518 15.0105 11.896C14.5087 12.1815 13.9796 12.416 13.431 12.596C13.2236 12.269 12.939 11.9981 12.6023 11.807C12.2656 11.6158 11.887 11.5104 11.5 11.5C11.1129 11.5105 10.7342 11.6161 10.3975 11.8074C10.0608 11.9987 9.77625 12.2699 9.56899 12.597C9.02041 12.417 8.49127 12.1825 7.98949 11.897C7.96417 11.5188 7.79636 11.1644 7.51992 10.9051C7.24348 10.6458 6.87899 10.5011 6.49999 10.5C6.39594 10.5 6.2922 10.5111 6.19049 10.533C5.31742 9.66711 4.63886 8.62515 4.19999 7.4765C4.97874 6.70416 5.60619 5.793 6.04999 4.79C6.98099 5.818 9.01549 6.5 11.5 6.5C13.9845 6.5 16.019 5.818 16.95 4.79C17.3938 5.793 18.0212 6.70416 18.8 7.4765C18.3611 8.62515 17.6826 9.66711 16.8095 10.533ZM13 14.5C13 15.603 12.327 16.5 11.5 16.5C10.673 16.5 9.99999 15.603 9.99999 14.5C9.99999 13.397 10.673 12.5 11.5 12.5C12.327 12.5 13 13.397 13 14.5ZM6.49999 11.5C6.59888 11.5 6.69555 11.5293 6.77777 11.5843C6.86 11.6392 6.92408 11.7173 6.96193 11.8087C6.99977 11.9 7.00967 12.0006 6.99038 12.0975C6.97109 12.1945 6.92347 12.2836 6.85354 12.3536C6.78361 12.4235 6.69452 12.4711 6.59753 12.4904C6.50054 12.5097 6.40001 12.4998 6.30864 12.4619C6.21728 12.4241 6.13919 12.36 6.08425 12.2778C6.02931 12.1956 5.99999 12.0989 5.99999 12C5.99999 11.8674 6.05267 11.7402 6.14643 11.6464C6.2402 11.5527 6.36738 11.5 6.49999 11.5ZM11.5 1.5C14.362 1.5 16.5 2.556 16.5 3.5C16.5 4.444 14.362 5.5 11.5 5.5C8.63799 5.5 6.49999 4.444 6.49999 3.5C6.49999 2.556 8.63799 1.5 11.5 1.5ZM11.5 30.5C7.93049 30.5 5.75749 29.8455 5.49999 29.466V28.6355C7.30299 29.4685 10.9635 29.5 11.5 29.5C12.0365 29.5 15.697 29.4685 17.5 28.6355V29.466C17.2425 29.8455 15.0695 30.5 11.5 30.5ZM11.5 28.5C8.03849 28.5 5.88999 27.8845 5.52849 27.5C5.77849 27.2475 6.98149 26.76 9.51449 26.5715C9.52697 26.677 9.57328 26.7756 9.64649 26.8525C9.8508 27.0583 10.0939 27.2216 10.3618 27.3327C10.6297 27.4439 10.917 27.5007 11.207 27.5H11.793C12.0829 27.5009 12.3702 27.4442 12.638 27.3332C12.9059 27.2222 13.1491 27.0592 13.3535 26.8535C13.4267 26.7766 13.473 26.678 13.4855 26.5725C16.0185 26.761 17.222 27.2485 17.4715 27.501C17.11 27.8845 14.9615 28.5 11.5 28.5ZM12.5 26.271C12.294 26.4192 12.0468 26.4992 11.793 26.5H11.207C10.9532 26.4992 10.706 26.4192 10.5 26.271V23.1445C10.7775 23.2605 11.0565 23.373 11.342 23.4735C11.4474 23.5091 11.5618 23.5081 11.6665 23.4705C11.949 23.3705 12.2255 23.2595 12.5 23.1445V26.271ZM11.5 22.468C9.04229 21.5653 6.86243 20.0375 5.1755 18.0351C3.48857 16.0328 2.35287 13.6252 1.88049 11.05L1.55899 9.281L1.96799 9.0765C2.4737 8.8215 2.95331 8.51772 3.39999 8.1695C3.85934 9.2487 4.5113 10.2353 5.32399 11.081C5.20026 11.237 5.10896 11.4162 5.05545 11.608C5.00194 11.7998 4.9873 12.0003 5.01238 12.1979C5.03746 12.3954 5.10177 12.5859 5.20152 12.7583C5.30127 12.9306 5.43445 13.0813 5.59324 13.2014C5.75203 13.3216 5.93323 13.4088 6.1262 13.4579C6.31916 13.507 6.52 13.5171 6.71691 13.4875C6.91383 13.458 7.10285 13.3893 7.27287 13.2857C7.44289 13.1821 7.59049 13.0455 7.70699 12.884C8.16816 13.1314 8.64875 13.3408 9.14399 13.51C9.04902 13.8314 9.00053 14.1648 8.99999 14.5C8.99999 16.1545 10.1215 17.5 11.5 17.5C12.8785 17.5 14 16.1545 14 14.5C13.9998 14.1649 13.9516 13.8315 13.857 13.51C14.3523 13.3407 14.8331 13.1313 15.2945 12.884C15.4105 13.0466 15.558 13.1843 15.7282 13.289C15.8984 13.3936 16.0878 13.4631 16.2853 13.4932C16.4828 13.5234 16.6843 13.5137 16.878 13.4646C17.0717 13.4155 17.2535 13.3281 17.4128 13.2076C17.5722 13.087 17.7057 12.9358 17.8055 12.7627C17.9053 12.5897 17.9695 12.3983 17.9941 12.2001C18.0187 12.0018 18.0033 11.8006 17.9489 11.6084C17.8944 11.4162 17.802 11.2369 17.677 11.081C18.4893 10.2352 19.1409 9.24863 19.6 8.1695C20.0464 8.51715 20.5257 8.82042 21.031 9.075L21.44 9.2795L21.1195 11.043C20.6478 13.6193 19.5125 16.0282 17.8255 18.0317C16.1386 20.0353 13.9583 21.5644 11.5 22.468ZM24.5 23.1705C24.7895 23.3845 25.14 23.5 25.5 23.5C25.86 23.5 26.2105 23.3845 26.5 23.1705V26.2705C26.294 26.4189 26.0468 26.4991 25.793 26.5H25.207C24.9532 26.4992 24.706 26.4192 24.5 26.271V23.1705ZM25.5 30.5C22.575 30.5 21.0755 29.77 21 29.5V28.714C22.064 29.25 23.8215 29.5 25.5 29.5C27.1785 29.5 28.9365 29.2475 30 28.7135V29.4925C29.9245 29.77 28.425 30.5 25.5 30.5ZM30 27.4925C29.9245 27.77 28.425 28.5 25.5 28.5C22.575 28.5 21.0805 27.772 21 27.509V27.506C21.0465 27.347 21.759 26.864 23.5255 26.627C23.5451 26.7119 23.5868 26.79 23.6465 26.8535C23.8509 27.0592 24.0941 27.2222 24.3619 27.3332C24.6298 27.4442 24.917 27.5009 25.207 27.5H25.793C26.0829 27.5009 26.3702 27.4442 26.638 27.3332C26.9059 27.2222 27.1491 27.0592 27.3535 26.8535C27.4133 26.7901 27.4552 26.7119 27.475 26.627C29.246 26.8645 29.9575 27.35 30 27.4925ZM30.293 18L26 22.293C25.8643 22.4197 25.6856 22.4902 25.5 22.4902C25.3144 22.4902 25.1356 22.4197 25 22.293L20.707 18C20.5745 17.8673 20.5 17.6875 20.5 17.5C20.5 17.3125 20.5745 17.1327 20.707 17L25 12.707C25.1326 12.5745 25.3125 12.5001 25.5 12.5001C25.6875 12.5001 25.8673 12.5745 26 12.707L30.293 17C30.4255 17.1327 30.4999 17.3125 30.4999 17.5C30.4999 17.6875 30.4255 17.8673 30.293 18Z" fill="#D97706"/>
<path d="M27.5001 16.6185V15H26.5001V16.6185C26.174 16.8071 25.9075 17.0835 25.7307 17.4161C25.5539 17.7487 25.474 18.1242 25.5001 18.5C25.5001 19.6215 26.1591 20.5 27.0001 20.5C27.8411 20.5 28.5001 19.6215 28.5001 18.5C28.5261 18.1242 28.4462 17.7487 28.2694 17.4161C28.0926 17.0835 27.8261 16.8071 27.5001 16.6185ZM27.0001 19.5C26.7961 19.5 26.5001 19.1105 26.5001 18.5C26.5001 17.8895 26.7961 17.5 27.0001 17.5C27.2041 17.5 27.5001 17.8895 27.5001 18.5C27.5001 19.1105 27.2041 19.5 27.0001 19.5Z" fill="#D97706"/>
<path d="M24.5001 16.6185V15H23.5001V16.6185C23.174 16.8071 22.9075 17.0835 22.7307 17.4161C22.5539 17.7487 22.474 18.1242 22.5001 18.5C22.5001 19.6215 23.1591 20.5 24.0001 20.5C24.8411 20.5 25.5001 19.6215 25.5001 18.5C25.5261 18.1242 25.4462 17.7487 25.2694 17.4161C25.0926 17.0835 24.8261 16.8071 24.5001 16.6185ZM24.0001 19.5C23.7961 19.5 23.5001 19.1105 23.5001 18.5C23.5001 17.8895 23.7961 17.5 24.0001 17.5C24.2041 17.5 24.5001 17.8895 24.5001 18.5C24.5001 19.1105 24.2041 19.5 24.0001 19.5Z" fill="#D97706"/>
</g>
<defs>
<clipPath id="clip0_64_677">
<rect width="32" height="32" fill="white"/>
</clipPath>
</defs>
</svg>
