<svg width="16" height="16" viewBox="0 0 16 16" fill="none" xmlns="http://www.w3.org/2000/svg">
<g clip-path="url(#clip0_67_1172)">
<path d="M12.645 9.91137C12.3174 9.5703 11.9223 9.38795 11.5036 9.38795C11.0882 9.38795 10.6898 9.56693 10.3487 9.90799L9.2816 10.9717C9.1938 10.9244 9.106 10.8805 9.02158 10.8366C8.90001 10.7759 8.7852 10.7185 8.68727 10.6577C7.6877 10.0228 6.77931 9.19547 5.90807 8.12499C5.48595 7.59143 5.20229 7.1423 4.9963 6.68642C5.27321 6.43315 5.52985 6.16975 5.77975 5.91649C5.8743 5.82193 5.96885 5.724 6.06341 5.62945C6.77256 4.9203 6.77256 4.00178 6.06341 3.29263L5.14151 2.37073C5.03683 2.26605 4.92876 2.15799 4.82746 2.04993C4.62484 1.84056 4.4121 1.62444 4.1926 1.42182C3.86504 1.09764 3.47332 0.925415 3.06133 0.925415C2.64935 0.925415 2.25088 1.09764 1.91318 1.42182C1.90981 1.4252 1.90981 1.4252 1.90643 1.42857L0.758281 2.58685C0.326037 3.0191 0.0795227 3.5459 0.0254922 4.15712C-0.0555537 5.14317 0.234861 6.06169 0.457737 6.66278C1.0048 8.13849 1.82201 9.50614 3.04107 10.9717C4.52016 12.7378 6.29979 14.1325 8.33269 15.1152C9.10938 15.4833 10.1461 15.9189 11.3044 15.9932C11.3753 15.9966 11.4496 15.9999 11.5171 15.9999C12.2972 15.9999 12.9523 15.7197 13.4656 15.1625C13.469 15.1557 13.4757 15.1523 13.4791 15.1456C13.6547 14.9328 13.8573 14.7404 14.0701 14.5344C14.2153 14.3959 14.3638 14.2507 14.5091 14.0987C14.8434 13.7509 15.019 13.3457 15.019 12.9303C15.019 12.5116 14.84 12.1097 14.4989 11.772L12.645 9.91137ZM13.8539 13.4673C13.8506 13.4706 13.8506 13.4673 13.8539 13.4673C13.7222 13.6091 13.5872 13.7374 13.442 13.8792C13.2225 14.0886 12.9996 14.3081 12.7902 14.5546C12.4491 14.9193 12.0473 15.0915 11.5205 15.0915C11.4698 15.0915 11.4158 15.0915 11.3652 15.0882C10.3622 15.024 9.43018 14.6323 8.73116 14.298C6.81983 13.3727 5.14151 12.0591 3.74685 10.3943C2.59532 9.00636 1.82538 7.72313 1.31547 6.34535C1.00142 5.5045 0.886604 4.84938 0.937258 4.23141C0.971027 3.83631 1.12299 3.50875 1.40327 3.22847L2.5548 2.07694C2.72027 1.9216 2.89587 1.83718 3.06809 1.83718C3.28083 1.83718 3.45306 1.9655 3.56112 2.07356C3.56449 2.07694 3.56787 2.08032 3.57125 2.0837C3.77724 2.27618 3.9731 2.47542 4.17909 2.68816C4.28377 2.79622 4.39184 2.90428 4.4999 3.01572L5.42179 3.93762C5.77975 4.29557 5.77975 4.62651 5.42179 4.98446C5.32386 5.08239 5.22931 5.18032 5.13138 5.27487C4.84772 5.56529 4.57757 5.83544 4.28378 6.09884C4.27702 6.10559 4.27027 6.10897 4.26689 6.11572C3.97648 6.40614 4.03051 6.6898 4.09129 6.88228C4.09467 6.89241 4.09804 6.90254 4.10142 6.91267C4.34118 7.4935 4.67887 8.04056 5.19216 8.69231L5.19554 8.69568C6.12757 9.84383 7.11025 10.7387 8.19424 11.4242C8.33269 11.512 8.47452 11.5829 8.6096 11.6505C8.73116 11.7113 8.84598 11.7687 8.94391 11.8295C8.95742 11.8362 8.97093 11.8463 8.98443 11.8531C9.09925 11.9105 9.20731 11.9375 9.31875 11.9375C9.59903 11.9375 9.77463 11.7619 9.83204 11.7045L10.9869 10.5496C11.1018 10.4348 11.2841 10.2963 11.4969 10.2963C11.7062 10.2963 11.8784 10.428 11.9831 10.5429C11.9865 10.5462 11.9865 10.5462 11.9899 10.5496L13.8506 12.4103C14.1984 12.7547 14.1984 13.1093 13.8539 13.4673Z" fill="white"/>
<path d="M8.64673 3.80597C9.53148 3.95456 10.3352 4.37329 10.9768 5.01491C11.6184 5.65652 12.0338 6.46022 12.1857 7.34497C12.2229 7.56785 12.4154 7.72319 12.6349 7.72319C12.6619 7.72319 12.6855 7.71981 12.7125 7.71643C12.9624 7.67591 13.1279 7.43953 13.0874 7.18964C12.905 6.11916 12.3985 5.14323 11.6252 4.36992C10.8519 3.5966 9.87593 3.09007 8.80545 2.90771C8.55556 2.86719 8.32255 3.03266 8.27865 3.27917C8.23475 3.52569 8.39684 3.76545 8.64673 3.80597Z" fill="white"/>
<path d="M15.9814 7.05794C15.6808 5.29519 14.8501 3.69116 13.5737 2.41469C12.2972 1.13821 10.6931 0.307495 8.9304 0.00695018C8.68389 -0.0369496 8.45088 0.131896 8.40698 0.37841C8.36646 0.628302 8.53192 0.861308 8.78182 0.905208C10.3555 1.17198 11.7906 1.91828 12.932 3.0563C14.0734 4.1977 14.8164 5.63288 15.0831 7.20652C15.1203 7.4294 15.3128 7.58474 15.5323 7.58474C15.5593 7.58474 15.5829 7.58136 15.6099 7.57798C15.8564 7.54084 16.0253 7.30445 15.9814 7.05794Z" fill="white"/>
</g>
<defs>
<clipPath id="clip0_67_1172">
<rect width="16" height="16" fill="white"/>
</clipPath>
</defs>
</svg>
