<svg width="640" height="608" viewBox="0 0 640 608" fill="none" xmlns="http://www.w3.org/2000/svg">
<g clip-path="url(#clip0_18_2191)">
<path d="M212.718 67.735C212.718 67.735 115.738 117.149 67.3639 193.302C18.9902 269.454 22.8199 367.323 81.6014 440.061C140.383 512.8 252.728 503.215 346.788 549.27C440.848 595.323 544.645 585.848 589.119 488.264C633.592 390.679 566.533 354.227 555.004 241.307C543.475 128.385 441.686 -36.9702 212.718 67.735Z" fill="#FEF3C7"/>
<path opacity="0.7" d="M212.718 67.735C212.718 67.735 115.738 117.149 67.3639 193.302C18.9902 269.454 22.8199 367.323 81.6014 440.061C140.383 512.8 252.728 503.215 346.788 549.27C440.848 595.323 544.645 585.848 589.119 488.264C633.592 390.679 566.533 354.227 555.004 241.307C543.475 128.385 441.686 -36.9702 212.718 67.735Z" fill="#FEF3C7"/>
<path d="M317.13 257.152C317.702 257.065 317.765 254.153 317.437 254.121C316.271 254.006 315.827 257.348 317.13 257.152Z" stroke="#B2B2B2" stroke-width="1.28" stroke-miterlimit="10"/>
<path d="M193.628 299.479C194.583 299.129 200.739 300.417 200.739 298.469C200.739 297.211 194.408 295.558 193.628 296.159C193.703 297.011 194.032 297.756 194.615 298.396C194.615 299.017 191.953 298.329 191.719 298.973C192.154 299.645 192.791 299.814 193.628 299.479Z" stroke="#B2B2B2" stroke-width="1.28" stroke-miterlimit="10"/>
<path d="M249.454 337.955C246.862 338.095 244.381 334.775 241.554 334.381C239.042 334.031 238.887 333.763 236.683 334.67C239.148 333.66 232.701 330.68 232.662 330.67C231.583 330.386 230.477 333.312 229.502 332.896C229.695 332.978 230.664 330.566 229.675 329.656C228.538 328.611 226.934 330.936 226.839 330.879C226.998 330.973 229.59 324.39 226.432 322.664C223.386 320.664 220.881 321.046 218.116 319.653C215.537 318.354 215.3 315.158 211.665 315.393C213.143 315.297 208.807 311.51 210.006 311.987C208.08 311.222 204.341 312.855 201.847 312.298C200.863 312.078 200.221 309.546 198.795 309.546C196.608 309.546 197.205 313.466 196.853 314.239C195.844 316.453 195.437 308.429 196.457 309.078C195.719 308.609 190.601 312.148 190.071 312.544C188.923 313.4 188.461 315.069 187.276 315.419C189.275 314.829 180.876 313.896 182.632 314.566C177.324 312.54 179.752 311.858 178.306 307.164C177.897 305.837 179.273 305.213 178.152 303.997C177.094 302.851 172.539 302.61 171.144 303.484C170.171 304.023 171.276 299.809 171.702 299.377C173.431 297.618 173.975 293.539 171.304 293.468C166.85 293.352 169.05 297.293 166.284 298.666C157.95 302.804 157.588 291.092 157.846 286.166C157.734 286.09 157.623 286.025 157.52 285.98C157.623 286.025 157.734 286.09 157.846 286.164C158.303 277.503 164.544 279.85 169.76 280.456C168.388 280.296 169.549 278.231 171.13 278.079C172.424 277.955 173.814 278.532 175.421 279.013C178.048 279.8 177.39 279.002 179.339 282.332C180.112 283.654 180.419 286.975 182.137 287.534C182.286 287.583 182.039 275.406 183.025 273.958C184.278 272.118 187.257 269.833 188.192 268.635C190.347 265.876 188.273 268.974 188.542 265.779C188.57 265.441 187.678 260.884 189.147 260.884C188.582 260.884 189.65 265.161 189.591 265.202C191.053 264.186 190.107 262.703 190.171 261.547C190.222 260.63 194.92 259.057 195.302 258.222C195.462 257.87 193.031 258.268 193.031 258.15C193.031 256.919 196.845 257.123 197.408 256.742C197.146 256.919 198.246 253.111 199.021 252.303C200.739 250.515 205.038 250.912 206.362 248.188C206.197 248.526 206.93 249.885 207.856 249.615C204.462 250.606 202.851 252.406 206.914 251.799C208.978 251.491 212.121 249.467 213.67 248.297C213.757 248.232 212.962 247.226 213.077 246.529C213.004 246.968 210.519 248.934 209.929 248.826C205.981 248.099 207.863 245.445 206.333 244.422C205.911 244.623 205.471 244.704 205.012 244.667C204.589 243.247 209.798 242.181 204.79 241.528C201.337 241.078 199.614 246.098 197.243 246.098C198.39 246.098 203.647 239.731 206.126 239.137C207.133 238.895 221.142 237.883 219.963 234.783C219.641 234.598 219.309 234.433 218.967 234.286C217.998 233.386 221.49 232.508 217.618 232.056C217.524 231.629 217.49 231.195 217.52 230.757C217.15 230.504 213.239 232.124 213.237 232.111C212.939 230.687 216.855 230.532 217.289 229.783C217.259 229.837 208.904 225.765 209.67 224.774C211.217 222.77 211.206 225.001 210.201 221.894C209.927 221.047 206.189 215.809 206.461 215.565C204.639 217.207 205.663 220.937 202.5 220.95C199.015 220.963 199.351 216.947 199.351 214.659C199.351 213.652 190.688 211.067 190.036 211.085C185.134 211.223 187.145 211.537 186.842 215.416C186.79 216.084 186.06 218.842 186.137 219.237C186.714 222.246 189.202 223.211 187.682 227.075C187.217 228.255 184.432 228.577 184.227 229.263C183.956 230.176 185.306 231.11 185.097 232.201C185.013 232.645 185.552 236.8 185.27 236.668C183.43 235.802 184.235 237.515 182.167 235.666C179.837 233.581 181.463 230.57 180.103 228.987C179.56 228.356 172.809 225.793 171.305 225.11C168.772 223.956 167.542 223.656 164.788 224.081C165.379 223.987 164.233 220.643 163.981 220.214C162.508 217.718 160.93 220.49 161.815 215.583C162.038 214.346 167.552 208.426 167.586 208.596C167.537 208.349 163.075 206.659 163.108 206.575C163.729 205.08 167.56 209.249 168.606 206.106C168.126 207.552 174.67 204.681 173.033 203.507C172.349 203.017 168.515 203.548 168.742 201.706C168.593 202.918 176.964 203.338 173.643 200.366C173.53 200.265 176.688 200.402 177.329 200.402C177.774 200.402 176.118 198.867 176.268 198.719C176.749 198.241 178.425 201.065 180.625 198.6C182.315 196.707 179.733 196.507 179.633 194.662C179.622 194.454 182.251 193.751 181.378 192.434C180.717 191.437 177.234 190.239 176.08 190.606C175.286 190.859 176.372 194.772 174.202 196.033C173.904 195.749 173.685 195.412 173.544 195.023C172.631 195.086 174.374 198.42 173.196 197.873C171.916 197.277 171.922 194.954 171.733 194.789C171.267 194.382 170.653 192.883 169.869 192.191C169.259 191.651 168.352 194.788 168.046 194.843C166.947 195.045 168.203 191.995 168.277 191.857C168.817 190.851 165.448 191.178 165.512 191.235C164.447 190.301 166.244 189.793 166.434 189.501C166.192 189.873 163.844 185.679 163.852 185.696C162.303 182.164 163.349 185.695 162.948 181.728C163.136 183.587 170.135 178.647 167.705 177.843C165.123 176.989 161.707 176.777 161.166 178.746C160.862 179.858 161.038 184.326 160.574 186.109C160.427 186.673 158.516 187.593 159.188 189.867C159.449 190.753 164.541 191.894 162.15 193.838C162.275 193.253 162.605 192.964 163.136 192.971C163.209 193.119 160.529 198.017 160.812 197.807C160.743 197.859 157.947 195.012 157.742 194.664C157.597 194.413 161.143 193.869 161.33 193.688C162.71 192.355 159.322 192.378 159.322 192.173C159.322 191.799 161.137 192.026 160.503 191.523C158.51 189.943 156.066 190.831 154.781 192.497C154.143 193.323 159.765 195.47 153.004 196.34C149.923 196.737 148.667 195.206 145.991 194.563C145.216 194.377 145.255 193.558 143.837 193.418C143.348 193.371 140.007 194.844 141.026 195.302C141.768 195.636 144.532 193.746 144.972 194.228C143.156 192.233 142.818 199.827 141.644 199.209C141.126 198.936 141.448 197.108 139.854 196.579C137.668 195.853 132.712 198.107 131.083 196.321C130.293 195.455 133.166 195.252 132.945 194.74C132.139 192.873 127.583 192.746 125.917 192.356C124.434 192.008 123.066 191.036 121.594 190.876C119.814 190.683 119.133 191.954 117.488 191.954C117.246 191.954 117.824 189.748 117.059 189.643C116.523 190.527 115.853 191.297 115.052 191.954C113.469 191.839 113.68 187.953 111.801 188.241C113.076 188.046 109.109 191.064 109.379 190.912C108.822 191.226 104.571 193.855 104.155 193.83C103.17 193.773 109.731 189.741 109.718 189.897C109.785 189.102 104.039 191.539 103.399 191.882C102.649 192.284 103.371 190.874 102.28 191.268C99.5434 192.257 101.488 193.112 100.831 193.83C101.091 193.545 83.8545 189.765 82.7166 189.673C81.0346 189.537 70.5502 188.346 69.8897 187.622C68.753 186.376 65.7348 187.703 64.3601 189.21C63.2644 190.411 55.0929 192.22 54.6948 194.006C53.8641 197.739 62.577 198.429 63.2401 200.471C63.2913 200.626 53.4302 200.096 52.3447 202.673C52.7159 201.791 55.0929 205.504 55.3399 205.596C56.4522 206.011 62.4516 204.735 62.4823 204.767C64.154 206.441 60.5162 208.696 59.619 209.531C58.5412 210.533 58.435 208.916 57.1498 210.614C56.6174 211.316 55.3233 212.02 54.7012 212.602C54.9726 212.348 56.6801 216.151 56.7274 216.192C57.7655 217.103 60.9463 217.088 60.5738 216.714C61.5697 217.714 60.483 219.808 61.4071 220.301C62.0305 220.634 64.209 220.371 65.4084 220.86C64.3434 220.426 68.698 218.967 68.4446 219.736C67.8519 221.539 60.6993 230.248 59.6522 229.094C60.9143 230.479 73.8065 221.769 73.8065 219.708C73.4532 219.415 73.059 219.199 72.6212 219.059C72.3332 218.322 79.5959 212.274 79.3399 214.629C79.3668 214.383 75.0033 217.935 76.0106 218.857C76.3076 219.128 81.1127 217.459 81.8705 217.183C82.7473 216.865 80.1194 214.734 81.9076 214.418C82.4926 214.314 84.7863 215.661 84.8785 215.627C84.3281 215.548 83.9863 215.762 83.8545 216.269C84.081 216.96 94.1137 216.518 94.7422 217.076C94.4401 216.808 101.193 222.637 101.124 221.01C100.827 220.399 100.756 219.779 100.907 219.151C104.118 221.496 99.4078 222.127 99.4167 221.985C99.4065 222.149 101.86 225.591 101.787 225.631C102.238 225.384 101.152 222.51 101.886 222.779C102.056 223.145 102.123 223.53 102.083 223.933C102.896 224.975 103.038 221.578 102.939 221.839C103.113 221.381 103.193 226.278 102.676 226.208C101.937 226.108 106.953 225.774 105.474 226.496C105.94 226.269 103.642 224.907 104.914 224.8C106.861 224.639 105.335 226.458 104.025 226.569C104.067 226.565 104.036 229.265 104.255 229.421C104.657 229.706 106.446 228.029 107.35 228.193C108.4 228.387 108.102 231.693 108.601 232.38C108.963 232.878 111.473 235.405 111.802 235.813C113.273 237.646 115.405 238.826 117.081 240.07C116.902 239.937 123.686 245.663 119.957 245.663C119.815 245.663 115.908 235.127 111.564 238.191C112.477 237.547 117.405 244.617 117.719 245.518C119.533 250.731 116.55 256.791 118.574 262.482C119.961 266.376 123.616 268.843 126.087 271.52C127.669 273.231 128.643 275.162 130 277.453C131.729 280.374 132.113 281.126 131.774 282.803C131.757 282.883 139.581 291.062 139.286 291.277C140.021 290.739 131.54 275.407 131.782 275.382C134.854 275.066 135.122 279.863 135.691 280.746C137.259 283.183 140.117 285.451 141.842 287.663C144.79 291.443 145.175 295.403 147.805 298.112C149.559 299.921 153.629 301.485 155.976 302.227C159.044 303.196 162.295 302.28 164.774 304.704C165.879 305.782 167.686 305.824 168.475 306.625C170.651 308.616 171.549 307.617 173.581 309.711C174.955 311.126 175.354 312.417 176.145 313.194C177.442 314.469 179.643 316.906 181.602 317.047C183.432 317.179 182.943 314.875 183.935 315.109C188.306 316.141 187.515 322.011 185.758 325.59C183.843 329.49 181.402 330.164 183.552 334.091C183.703 334.367 181.421 338.075 181.644 339.217C182.071 341.413 186.951 347.89 188.095 350.153C190.275 354.463 193.064 354.899 196.159 358.419C198.983 361.631 198.093 364.192 197.603 368.604C196.893 375.009 196.708 381.316 195.344 387.533C194.801 390.008 190.1 402.906 191.814 405.381C192.61 406.531 192.944 402.139 193.723 401.911C194.663 401.637 193.242 411.531 192.469 410.984C192.063 410.697 192.919 407.794 191.848 408.262C192.82 407.836 189.844 412.366 189.84 412.413C189.955 411.135 191.364 413.978 191.421 414.435C191.515 415.219 193.134 413.907 193.054 415.053C193.174 413.336 188.168 417.037 190.532 416.673C190.925 416.444 191.284 416.17 191.606 415.852C191.95 415.782 189.136 418.793 191.026 419.091C191.394 419.149 191.592 417.161 192.113 417.683C193.216 418.793 190.009 421.139 190.763 422.086C190.914 422.276 192.483 421.37 192.791 422.006C192.889 422.205 191.73 423.101 191.916 423.171C192.543 423.398 193.975 422.546 194.253 423.459C194.549 424.427 191.467 423.526 192.509 425.01C192.904 425.574 195.395 423.206 195.866 424.758C195.73 424.312 193.07 426.156 192.982 426.273C192.896 426.387 196.168 425.311 196.262 425.517C196.496 426.03 192.619 427.529 192.518 427.091C192.633 427.588 194.86 428.97 195.208 428.621C195.819 428.008 194.416 428.303 194.909 427.654C195.257 427.196 198.242 425.535 198.402 425.097C197.847 425.453 197.574 425.966 197.579 426.635C198.025 426.711 198.476 426.735 198.928 426.707C198.546 426.289 198.027 428.658 198.171 428.584C197.783 428.229 197.576 427.784 197.545 427.249C196.884 426.958 197.23 428.641 197.133 428.575C196.903 428.064 196.543 427.862 196.055 427.967C196.602 427.205 195.373 430.319 195.373 429.234C195.373 428.645 197.259 430.966 197.216 430.931C197.465 430.542 197.64 430.121 197.742 429.668C197.675 429.684 200.567 431.745 200.871 431.834C201.446 432.003 200.445 430.468 200.78 430.522C201.571 430.648 205.426 429.632 205.293 429.583C203.208 428.822 200.64 425.094 200.251 424.997C199.931 424.918 198.746 425.165 198.928 424.363C199.09 423.648 200.213 424.65 200.507 424.328C200.649 424.173 199.191 421.573 199.528 420.827C200.055 419.659 200.969 419.34 201.561 418.264C202.354 416.819 204.304 415.717 204.428 414.106C204.526 412.845 202.6 412.813 202.694 412.452C203.056 411.062 203.949 407.64 205.387 405.827C205.937 405.132 207.799 403.302 207.782 403.287C207.335 402.912 203.775 403.223 205.641 400.399C205.058 401.279 209.89 399.626 209.645 399.766C210.313 399.386 209.549 397.153 209.892 396.791C211.545 395.04 217.626 397.577 218.315 392.893C218.467 391.855 215.615 388.243 215.55 388.31C216.52 387.305 221.017 389.457 223.499 386.844C224.116 386.195 227.197 380.736 227.19 380.901C226.877 381.709 226.471 382.465 225.972 383.171C226.015 382.086 229.6 379.098 230.065 377.842C230.729 376.049 229.915 373.713 230.854 372.069C232.725 368.791 236.919 369.426 239.249 367.951C242.242 366.058 243.103 363.329 244.022 359.795C244.587 357.623 244.003 352.114 245.12 350.383C245.021 350.537 256.835 337.537 249.454 337.955Z" stroke="#B2B2B2" stroke-width="1.28" stroke-miterlimit="10"/>
<path d="M191.984 295.942C193.69 293.601 174.356 289.453 176.776 292.982C175.623 291.292 184.485 293.549 184.898 293.777C186.407 294.605 189.923 298.76 191.984 295.942Z" stroke="#B2B2B2" stroke-width="1.28" stroke-miterlimit="10"/>
<path d="M185.86 299.117C186.123 299.622 188.625 300.344 188.888 299.695C189.152 299.045 185.533 298.491 185.86 299.117Z" stroke="#B2B2B2" stroke-width="1.28" stroke-miterlimit="10"/>
<path d="M202.78 299.261C203.372 300.273 205.067 299.668 205.215 299.261C205.479 298.539 202.187 298.251 202.78 299.261Z" stroke="#B2B2B2" stroke-width="1.28" stroke-miterlimit="10"/>
<path d="M212.192 423.785C212.982 424.219 214.628 422.052 213.904 421.908C213.181 421.764 211.444 423.373 212.192 423.785Z" stroke="#B2B2B2" stroke-width="1.28" stroke-miterlimit="10"/>
<path d="M214.169 423.93C214.695 424.218 216.859 423.227 216.604 422.703C216.078 421.619 213.643 423.64 214.169 423.93Z" stroke="#B2B2B2" stroke-width="1.28" stroke-miterlimit="10"/>
<path d="M166.507 329.364C165.849 330.447 167.156 331.503 167.429 331.023C167.758 330.446 167.165 328.282 166.507 329.364Z" stroke="#B2B2B2" stroke-width="1.28" stroke-miterlimit="10"/>
<path d="M225.601 191.414C225.749 188.804 221.76 190.068 221.164 190.187C220.557 190.309 225.418 194.598 225.601 191.414Z" stroke="#B2B2B2" stroke-width="1.28" stroke-miterlimit="10"/>
<path d="M270.325 189.635C269.845 189.917 263.969 189.001 263.928 189.105C264.088 188.709 266.058 186.449 265.81 186.355C267.099 186.836 270.808 191.249 270.984 187.158C271.087 184.739 267.674 184.732 267.121 182.799C266.965 182.25 271.652 184.312 270.72 181.404C270.193 179.759 265.583 182.575 265.77 180.806C265.706 181.416 267.359 178.642 267.078 178.95C268.545 177.338 275.204 182.904 270.897 177.313C270.723 177.088 274.778 177.166 274.977 176.333C275.151 175.612 270.943 175.626 271.905 174.042C273.107 172.064 276.125 174.939 274.181 170.894C274.245 171.027 269.304 169.35 270.062 168.603C270.733 167.94 276.627 168.536 276.407 167.706C275.846 165.592 272.977 167.822 272.74 166.004C272.617 165.061 274.487 165.949 274.758 165.523C275.814 163.863 270.227 165.199 270.428 165.354C268.918 164.184 276.612 157.011 276.838 157.312C275.424 155.432 274.131 158.574 273.135 157.583C272.238 156.687 278.702 155.775 278.885 155.657C279.438 155.301 275.378 154.455 275.199 154.761C275.908 153.546 285.381 153.701 285.381 151.085C285.381 147.575 276.396 150.943 275.389 151.265C274.606 151.516 273.462 150.492 272.918 150.699C271.109 151.387 269.454 154.315 267.519 154.597C269.413 154.318 271.562 149.736 268.469 149.187C267.983 149.101 262.756 152.97 262.428 151.807C262.167 150.879 265.578 150.458 265.5 149.688C265.335 148.063 254.371 150.603 254.353 150.363C254.185 148.136 269.606 149.03 271.163 146.945C272.027 145.787 251.552 142.475 249.701 142.952C249.237 143.071 246.449 144.06 246.147 144.107C246.216 144.097 244.645 143.95 244.215 143.999C240.741 144.397 237.334 144.165 233.857 144.828C233.43 144.91 235.37 146.212 235.35 146.321C235.314 146.519 232.3 146.638 232.717 147.187C232.627 147.069 236.997 150.295 236.693 150.36C234.245 150.88 229.754 145.284 227.274 147.09C226.666 147.535 229.073 149.01 229.073 149.353C229.073 150.701 224.145 147.812 224.289 147.812C223.921 147.812 224.059 150.76 223.361 151.192C225.49 149.869 220.735 148.005 219.992 147.926C217.128 147.622 216.223 150.136 216.076 150.187C214.967 150.575 213.338 149.229 211.904 149.815C210.886 150.231 212.81 151.95 211.391 152.739C211.017 152.946 201.062 153.192 202.389 156.282C203.397 158.634 208.768 156.177 203.995 160.073C202.697 161.133 198.93 160.696 197.288 161.816C189.67 167.016 204.337 163.587 204.187 166.483C204.172 166.803 196.408 166.815 196.55 167.542C196.755 168.591 202.001 171.019 203.392 171.151C206.225 171.42 208.936 169.307 212.712 171.126C216.019 172.718 219.352 175.985 220.339 179.67C221.494 183.983 218.757 184.53 223.279 184.53C222.97 184.53 226.999 188.806 227.141 188.681C226.985 188.819 222.094 186.758 222.094 187.995C222.094 190.907 228.917 188.785 227.096 193.962C226.824 194.739 224.664 193.645 224.024 195.213C223.404 196.737 223.322 197.243 223.256 198.534C223.15 200.627 226.291 207.876 228.613 211.059C230.469 213.604 231.574 213.997 234.2 215.177C238.323 217.029 237.371 217.268 239.689 213.824C240.595 212.477 239.208 211.164 239.566 210.127C239.756 209.577 241.537 209.592 241.801 208.416C242.141 206.898 241.932 204.404 242.127 203.739C242.629 203.683 243.117 203.747 243.592 203.931C243.788 203.813 246.351 200.376 246.653 200.376C247.053 200.768 247.118 201.229 246.851 201.76C247.342 203.327 253.219 198.095 253.34 198.007C255.587 196.372 255.256 196.267 257.263 195.384C261.728 193.419 266.711 191.77 270.325 189.635Z" stroke="#B2B2B2" stroke-width="1.28" stroke-miterlimit="10"/>
<path d="M120.357 171.635C121.636 170.934 121.627 171.685 122.596 170.624C122.869 171.117 123.22 171.551 123.649 171.923C125.167 171.923 125.785 168.649 126.743 168.458C127.736 168.26 127.032 171.364 129.227 169.243C130.063 168.435 129.872 167.697 130.692 166.798C130.917 166.551 126.062 166.714 125.383 166.943C123.54 167.565 120.279 171.677 120.357 171.635Z" stroke="#B2B2B2" stroke-width="1.28" stroke-miterlimit="10"/>
<path d="M130.1 170.335C127.902 170.507 131.302 171.941 131.194 171.589C130.283 171.598 129.433 171.845 128.643 172.329C128.245 172.893 130.85 172.683 130.561 172.788C129.579 172.842 128.701 173.154 127.928 173.727C129.337 175.784 131.729 173.838 132.84 173.131C132.262 173.499 136.259 174.479 136.529 174.072C136.145 174.652 132.391 175.173 132.454 175.776C132.657 177.729 139.952 175.135 141.029 174.666C144.651 173.09 145.712 174.364 144.016 171.237C144.157 171.498 140.107 168.698 139.467 169.029C137.578 170.01 140.586 171.965 140.173 172.644C139.096 174.42 135.44 170.648 134.576 170.422C132.357 169.844 131.933 170.191 130.1 170.335Z" stroke="#B2B2B2" stroke-width="1.28" stroke-miterlimit="10"/>
<path d="M154.72 185.855C157.39 187.85 160.488 180.375 158.819 180.278C158.335 180.704 158.23 181.226 158.507 181.848C158.69 181.449 156.311 180.643 156.366 180.73C155.857 179.931 159.747 179.199 157.223 177.481C155.35 176.206 155.578 178.575 155.601 178.564C155.935 178.401 150.004 177.884 151.89 179.575C152.524 179.759 153.17 179.886 153.826 179.954C156.057 181.889 149.946 180.845 150.573 180.73C148.794 181.056 154.173 185.445 154.72 185.855Z" stroke="#B2B2B2" stroke-width="1.28" stroke-miterlimit="10"/>
<path d="M117.394 184.556C118.144 185.382 118.847 186.249 119.501 187.154C121.105 187.154 122.794 184.815 123.583 184.227C125.656 182.678 128.595 181.157 130.692 179.43C131.474 178.788 121.145 175.819 119.796 176.242C115.462 177.597 119.229 176.675 117.823 179.055C117.389 179.79 115.054 183.622 115.355 183.988C115.995 184.316 116.674 184.504 117.394 184.556Z" stroke="#B2B2B2" stroke-width="1.28" stroke-miterlimit="10"/>
<path d="M125.294 172.718C126.479 172.863 127.664 171.707 127.597 171.058C127.532 170.408 124.705 172.646 125.294 172.718Z" stroke="#B2B2B2" stroke-width="1.28" stroke-miterlimit="10"/>
<path d="M195.144 187.154C195.937 187.066 196.355 186.632 196.394 185.855C196.684 186.807 191.436 184.052 190.962 183.892C189.8 183.498 190.524 182.429 188.641 181.999C187.354 181.705 185.375 183.624 185.434 183.644C183.685 183.027 184.416 183.762 182.438 183.762C180.984 183.762 183.448 175.804 177.123 179.62C173.315 181.917 176.476 183.144 176.645 185.567C176.673 185.975 173.806 184.717 173.921 182.872C174.026 181.202 176.119 179.691 176.119 178.635C176.119 176.689 169.243 181 168.906 182.518C168.453 184.568 171.405 188.663 172.613 187.054C172.306 187.464 169.391 186.674 169.469 187.442C169.893 191.635 185.025 189.02 185.352 189.878C184.929 189.591 184.671 189.201 184.579 188.704C184.79 188.009 189.907 191.882 189.943 192.206C189.349 192.55 188.865 193.007 188.495 193.578C189.463 194.402 190.552 192.755 192.182 194.445C194.017 196.347 193.981 195.955 194.421 198.847C194.513 199.453 199.986 197.677 198.996 200.215C197.976 202.833 196.556 199.562 195.836 199.796C195.144 200.023 193.243 200.091 192.241 200.399C192.079 200.449 192.759 202.278 192.841 202.239C191.301 202.994 188.782 202.321 187.596 203.337C183.24 207.073 192.273 204.81 193.498 205.198C194.764 205.599 202.268 214.812 204.228 212.128C204.717 211.457 200.906 207.337 200.207 207.54C203.082 206.703 207.319 211.473 205.807 206.642C205.133 204.486 200.024 202.83 202.253 200.145C203.183 199.021 207.062 203.778 207.717 203.763C207.757 203.762 211.535 199.757 211.535 199.785C211.515 197.11 200.995 195.663 201.331 193.071C201.98 192.778 202.66 192.609 203.372 192.566C202.895 192.087 202.324 191.773 201.66 191.627C201.478 190.04 203.346 190.111 200.672 190.111C202.611 190.111 197.976 188.005 197.809 187.945C197.254 187.753 195.14 187.155 195.144 187.154Z" stroke="#B2B2B2" stroke-width="1.28" stroke-miterlimit="10"/>
<path d="M104.635 231.183C103.418 231.892 106.164 235.263 106.893 234.756C107.118 234.597 106.428 230.138 104.635 231.183Z" stroke="#B2B2B2" stroke-width="1.28" stroke-miterlimit="10"/>
<path d="M148.335 174.161C148.796 173.583 147.348 172.356 146.953 173.367C146.559 174.377 147.867 174.748 148.335 174.161Z" stroke="#B2B2B2" stroke-width="1.28" stroke-miterlimit="10"/>
<path d="M183.886 212.854C184.346 212.782 185.268 210.977 184.083 211.049C182.899 211.121 183.17 212.965 183.886 212.854Z" stroke="#B2B2B2" stroke-width="1.28" stroke-miterlimit="10"/>
<path d="M190.469 197.478C194.067 196.819 186.997 194.225 188.169 195.222C188.923 195.863 186.135 198.267 190.469 197.478Z" stroke="#B2B2B2" stroke-width="1.28" stroke-miterlimit="10"/>
<path d="M178.091 211.265C179.144 211.987 180.724 210.036 180.592 209.46C180.461 208.883 176.818 210.394 178.091 211.265Z" stroke="#B2B2B2" stroke-width="1.28" stroke-miterlimit="10"/>
<path d="M165.453 174.305C166.049 176.175 181.092 176.938 182.832 175.676C189.792 170.633 168.102 173.155 168.395 171.521C168.742 171.071 169.144 170.675 169.6 170.335C170.137 169.629 157.797 167.128 158.738 168.603C161.28 172.584 163.711 168.85 165.453 174.305Z" stroke="#B2B2B2" stroke-width="1.28" stroke-miterlimit="10"/>
<path d="M150.312 190.476C150.666 190.022 152.357 191.409 152.419 190.404C152.461 189.702 147.41 186.13 146.965 184.992C146.632 184.142 146.646 180.365 146.624 180.329C147.226 179.786 147.16 179.222 146.427 178.637C145.271 178.312 144.306 178.552 143.53 179.359C144.227 179.849 144.841 180.426 145.374 181.092C145.374 180.756 142.085 179.563 141.752 180.225C141.288 181.149 143.25 184.529 142.625 184.846C142.505 184.907 138.186 179.988 137.934 181.092C138.38 181.489 138.753 181.946 139.053 182.463C139.009 182.638 136.659 182.534 136.79 182.877C135.05 178.292 133.627 183.784 132.05 182.296C131.886 182.141 134.75 179.963 131.383 179.954C130.075 179.95 126.759 181.821 126.298 182.918C124.342 187.571 128.725 184.156 130.56 185.567C130.661 185.645 126.675 186.673 126.675 187.227C126.675 189.66 136.09 186.973 136.09 189.032C136.09 189.539 127.611 189.019 127.926 190.404C128.791 194.199 139.57 193.446 141.746 193.142C143.712 192.867 143.459 192.66 145.264 192.668C145.998 192.671 152.028 194.738 151.295 192.283C150.721 190.362 149.336 192.863 148.859 191.558C149.283 191.114 149.765 190.753 150.312 190.476Z" stroke="#B2B2B2" stroke-width="1.28" stroke-miterlimit="10"/>
<path d="M206.927 240.141C207.059 240.719 210.877 242.451 211.009 241.658C211.141 240.863 206.814 239.645 206.927 240.141Z" stroke="#B2B2B2" stroke-width="1.28" stroke-miterlimit="10"/>
<path d="M168.81 165.787C167.625 165.137 166.139 166.511 167.362 167.014C168.416 167.447 169.995 166.437 168.81 165.787Z" stroke="#B2B2B2" stroke-width="1.28" stroke-miterlimit="10"/>
<path d="M158.541 164.849C166.282 164.849 157.148 160.535 156.631 161.384C156.157 162.164 157.628 164.849 158.541 164.849Z" stroke="#B2B2B2" stroke-width="1.28" stroke-miterlimit="10"/>
<path d="M159.331 157.702C159.404 157.743 165.439 160.53 165.124 159.579C165.284 160.061 162.338 160.782 162.491 160.951C164.427 163.072 167.459 164.46 170.193 163.694C170.379 163.642 175.878 158.739 175.724 159.579C175.502 160.796 171.661 155.685 171.447 155.532C171.363 155.471 163.092 151.078 162.294 151.684C162.439 152.138 162.765 152.424 163.273 152.541C163.296 152.989 161.27 152.63 161.087 153.002C161.46 153.292 161.822 153.594 162.174 153.906C161.773 154.679 159.464 153.541 159.554 155.058C160.05 155.657 160.649 156.113 161.351 156.424C161.426 157.252 157.018 156.435 159.331 157.702Z" stroke="#B2B2B2" stroke-width="1.28" stroke-miterlimit="10"/>
<path d="M182.24 178.708C180.585 182.641 188.955 181.728 188.955 180.874C188.955 179.557 182.712 177.587 182.24 178.708Z" stroke="#B2B2B2" stroke-width="1.28" stroke-miterlimit="10"/>
<path d="M163.872 165.21C163.74 164.777 158.749 165.436 159.526 166.076C160.844 167.159 164.004 165.643 163.872 165.21Z" stroke="#B2B2B2" stroke-width="1.28" stroke-miterlimit="10"/>
<path d="M133.525 165.138C133.854 164.271 131.345 164.416 131.55 164.704C132.012 165.354 133.196 166.004 133.525 165.138Z" stroke="#B2B2B2" stroke-width="1.28" stroke-miterlimit="10"/>
<path d="M162.424 173.006C161.36 172.13 158.241 174.227 158.672 174.594C160.375 176.049 166.295 176.189 162.424 173.006Z" stroke="#B2B2B2" stroke-width="1.28" stroke-miterlimit="10"/>
<path d="M147.217 167.231C147.743 166.509 145.11 164.2 144.978 165.283C144.848 166.365 146.658 167.999 147.217 167.231Z" stroke="#B2B2B2" stroke-width="1.28" stroke-miterlimit="10"/>
<path d="M153.01 168.458C151.449 167.793 153.676 170.834 153.43 170.76C152.681 170.172 151.849 169.787 150.935 169.6C150.374 170.049 151.748 171.423 151.29 171.643C150.586 171.983 148.855 168.659 147.875 168.603C145.775 168.481 148.612 171.572 148.715 171.634C150.471 172.696 151.852 171.876 153.603 172.356C153.36 172.289 155.551 177.929 157.611 172.942C159.111 169.307 154.783 169.215 153.01 168.458Z" stroke="#B2B2B2" stroke-width="1.28" stroke-miterlimit="10"/>
<path d="M138.987 164.777C140.117 164.586 134.312 163.204 134.312 165.427C134.314 169.189 139.002 164.774 138.987 164.777Z" stroke="#B2B2B2" stroke-width="1.28" stroke-miterlimit="10"/>
<path d="M135.762 163.405C136.3 163.64 140.041 163.597 140.041 162.827C140.041 160.032 133.836 163.135 133.984 163.26C134.57 163.392 135.163 163.439 135.762 163.405Z" stroke="#B2B2B2" stroke-width="1.28" stroke-miterlimit="10"/>
<path d="M155.776 157.775C156.237 156.909 153 156.229 153.801 156.982C154.262 157.414 155.315 158.641 155.776 157.775Z" stroke="#B2B2B2" stroke-width="1.28" stroke-miterlimit="10"/>
<path d="M146.755 161.167C147.812 160.817 148.471 161.153 148.73 162.177C148.602 162.493 146.294 162.394 146.359 162.611C146.457 162.929 159.028 167.758 152.613 161.384C151.813 160.589 150.339 159.839 149.586 159.752C143.958 159.104 147.221 160.827 146.755 161.167Z" stroke="#B2B2B2" stroke-width="1.28" stroke-miterlimit="10"/>
<path d="M182.834 207.295C182.971 206.543 176.412 202.049 176.054 202.098C175.434 202.181 172.366 206.281 172.762 207.584C173.156 208.879 182.895 206.953 182.834 207.295Z" stroke="#B2B2B2" stroke-width="1.28" stroke-miterlimit="10"/>
<path d="M167.296 150.556C169.668 148.883 167.708 151.26 167.733 151.287C168.204 151.316 168.667 151.392 169.123 151.511C166.5 154.595 174.035 154.102 173.994 153.517C174.33 158.308 183.607 151.909 184.719 152.701C186.862 154.227 179.096 155.723 179.273 155.979C179.271 155.976 181.778 158.093 181.467 158.116C179.985 158.225 172.26 152.735 173.569 157.624C173.874 158.762 179.936 161.085 179.936 162.18C179.936 162.18 172.288 159.904 172.102 163.191C171.983 165.27 176.319 162.822 176.376 162.948C175.693 161.453 177.039 167.636 177.039 166.44C177.039 167.836 171.109 162.806 171.361 165.573C171.9 166.08 172.481 166.532 173.106 166.926C173.106 167.41 168.006 167.818 169.206 169.038C170.577 170.435 186.063 170.876 186.84 168.975C187.587 167.151 181.045 167.604 180.728 167.11C181.654 168.558 186.595 164.494 186.93 164.31C189.394 162.954 190.41 164.948 191.72 161.098C192.11 159.949 187.455 159.915 187.5 159.883C190.216 157.963 193.781 158.747 196.255 157.507C197.746 156.759 206.636 152.173 206.73 151.497C206.833 150.771 202.563 151.314 202.319 151.208C204.37 152.107 211.656 147.278 211.74 147.304C211.159 147.123 202.739 144.259 202.604 146.422C202.945 145.916 203.4 145.537 203.964 145.288C202.305 145.948 194.043 145.504 192.92 145.563C189.127 145.763 185.464 145.061 182.133 145.983C181.459 146.168 165.935 151.263 165.647 150.691C166.2 150.984 166.75 150.94 167.296 150.556Z" stroke="#B2B2B2" stroke-width="1.28" stroke-miterlimit="10"/>
<path d="M219.896 237.084C219.454 237.362 217.801 238.373 216.731 240.742C216.572 241.093 213.67 243.991 214.849 244.689C217.513 246.255 219.96 242.307 220.247 245.793C220.151 244.637 224.11 246.231 224.286 245.889C224.207 246.04 223.118 242.861 223.643 243.099C224.353 243.42 218.396 239.311 218.481 239.995C218.421 239.511 219.437 237.372 219.896 237.084Z" stroke="#B2B2B2" stroke-width="1.28" stroke-miterlimit="10"/>
<path d="M53.2754 232.489C54.0652 232.128 54.3942 231.695 54.0652 231.263C53.7362 230.829 52.6674 232.767 53.2754 232.489Z" stroke="#B2B2B2" stroke-width="1.28" stroke-miterlimit="10"/>
<path d="M58.8703 229.24C57.9551 228.875 57.0194 230.342 56.8953 230.323C56.4908 230.26 59.7535 229.592 58.8703 229.24Z" stroke="#B2B2B2" stroke-width="1.28" stroke-miterlimit="10"/>
<path d="M74.406 221.226C72.8969 223.128 71.6527 226.784 74.8745 223.54C75.3557 223.058 76.0431 219.162 74.406 221.226Z" stroke="#B2B2B2" stroke-width="1.28" stroke-miterlimit="10"/>
<path d="M54.5903 216.499C53.972 216.129 53.533 216.298 53.2744 217.005C53.8274 217.632 54.5186 217.86 55.348 217.69C57.5739 216.874 54.5762 216.376 54.5903 216.499Z" stroke="#B2B2B2" stroke-width="1.28" stroke-miterlimit="10"/>
<path d="M308.354 260.568C308.244 259.75 306.736 260.813 307.059 261.05C307.717 261.532 308.463 261.388 308.354 260.568Z" stroke="#B2B2B2" stroke-width="1.28" stroke-miterlimit="10"/>
<path d="M341.774 268.75C341.724 268.218 337.512 268.782 337.604 268.799C337.064 268.7 341.894 270.139 341.774 268.75Z" stroke="#B2B2B2" stroke-width="1.28" stroke-miterlimit="10"/>
<path d="M352.898 269.352C353.239 268.869 353.602 268.406 353.99 267.963C353.973 267.906 350.791 268.826 350.619 269.151C350.035 270.251 353.025 270.114 352.898 269.352Z" stroke="#B2B2B2" stroke-width="1.28" stroke-miterlimit="10"/>
<path d="M280.681 205.995C285.376 205.734 280.964 198.628 278.729 199.932C278.22 200.23 274.935 202.057 274.348 201.882C274.148 201.404 273.799 201.135 273.3 201.073C270.372 204.523 273.406 200.075 269.38 200.075C268.537 200.075 269.808 201.262 269.58 201.238C268.773 201.148 267.537 200.901 267.339 202.436C267.252 203.098 270.686 202.945 270.564 202.821C270.463 202.716 270.229 204.051 270.339 203.978C270.248 204.038 267.586 204.096 267.821 204.577C267.903 204.745 270.243 204.819 270.658 205.298C271.399 206.154 269.846 207.231 269.686 207.055C272.503 210.141 277.663 206.168 280.681 205.995Z" stroke="#B2B2B2" stroke-width="1.28" stroke-miterlimit="10"/>
<path d="M289.393 236.411C293.299 236.411 294.373 233.595 293.991 230.634C293.859 229.608 295.957 229.441 293.608 228.178C293.337 228.032 290.539 228.658 290.534 228.831C290.457 230.918 290.686 229.075 288.449 230.298C288.387 230.332 288.433 236.411 289.393 236.411Z" stroke="#B2B2B2" stroke-width="1.28" stroke-miterlimit="10"/>
<path d="M301.375 216.872C301.748 216.463 302.186 214.899 301.616 215.068C301.046 215.237 301.212 217.05 301.375 216.872Z" stroke="#B2B2B2" stroke-width="1.28" stroke-miterlimit="10"/>
<path d="M293.87 220.649C293.585 220.337 292.442 222.111 292.883 222.093C293.475 222.07 294.155 220.963 293.87 220.649Z" stroke="#B2B2B2" stroke-width="1.28" stroke-miterlimit="10"/>
<path d="M293.497 222.815C294.926 221.562 293.584 227.638 293.584 226.857C293.584 225.764 295.462 227.397 295.253 227.435C295.677 227.096 295.962 226.671 296.108 226.161C296.767 226.272 295.672 228.769 295.691 228.928C295.81 229.915 298.193 228.323 298.338 228.573C299.905 231.302 297.082 232.444 297.183 234.246C296.263 234.529 295.729 235.083 295.582 235.907C295.918 236.202 299.247 236.417 299.249 236.435C299.322 236.879 294.074 237.961 295.363 239.684C295.315 239.62 304.812 237.606 305.369 237.035C305.795 236.602 304.398 236.836 304.45 236.426C304.696 234.525 306.184 235.412 305.367 233.338C305.437 233.514 303.839 232.433 303.526 231.9C302.47 230.107 301.432 226.258 298.851 226.45C298.862 226.449 300.503 223.694 300.334 223.265C299.607 221.427 298.243 223.521 297.221 222.295C296.875 221.88 299.327 220.247 298.612 219.566C298.091 219.075 293.602 222.723 293.497 222.815Z" stroke="#B2B2B2" stroke-width="1.28" stroke-miterlimit="10"/>
<path d="M320.4 228.759C320.122 228.691 324.13 227.677 322.222 226.377C320.592 225.258 320.24 228.721 320.4 228.759Z" stroke="#B2B2B2" stroke-width="1.28" stroke-miterlimit="10"/>
<path d="M331.044 221.948C330.211 221.974 329.82 223.772 330.034 224.067C330.211 224.307 331.877 221.925 331.044 221.948Z" stroke="#B2B2B2" stroke-width="1.28" stroke-miterlimit="10"/>
<path d="M335.694 221.468C336.289 221.213 336.801 220.845 337.23 220.36C338.308 219.18 334.047 221.564 335.694 221.468Z" stroke="#B2B2B2" stroke-width="1.28" stroke-miterlimit="10"/>
<path d="M336.945 219.35C337.122 218.989 335.678 219.147 336.002 219.471C336.244 219.712 336.771 219.711 336.945 219.35Z" stroke="#B2B2B2" stroke-width="1.28" stroke-miterlimit="10"/>
<path d="M330.494 156.728C331.746 157.797 334.178 156.566 335.728 157.523C335.661 157.482 332.621 158.644 332.634 158.678C333.38 160.636 344.281 159.638 343.53 156.621C343.439 156.255 336.433 155.273 336.716 155.177C336.266 155.662 336.179 156.191 336.452 156.764C335.874 157.186 333.059 154.875 332.436 154.959C332.291 154.98 331.661 155.863 331.482 156.258C331.101 155.981 330.727 155.691 330.364 155.392C329.066 155.392 330.317 156.576 330.494 156.728Z" stroke="#B2B2B2" stroke-width="1.28" stroke-miterlimit="10"/>
<path d="M321.376 159.652C319.15 159.137 322.554 163.114 323.08 163.414C324.109 164.001 324.935 161.499 325.689 161.203C326.548 160.865 325.375 162.579 326.092 162.525C326.586 162.222 327.113 161.999 327.671 161.857C328.317 162.854 322.987 164.786 323.726 164.97C325.065 165.303 326.51 164.439 327.894 164.776C327.843 164.763 323.842 165.798 323.812 166.075C323.68 167.382 326.166 167.325 326.741 167.555C326.613 167.873 326.371 168.078 326.016 168.168C325.686 168.622 327.874 168.842 328.222 168.637C328.677 168.367 330.071 165.713 330.535 165.11C330.796 164.769 332.921 159.703 334.229 161.784C333.877 161.225 334.766 166.208 334.295 166.107C334.852 166.227 339.875 167.072 339.676 164.74C339.775 165.944 334.471 160.861 334.564 160.938C332.914 159.58 330.446 159.359 329.275 159.072C329.964 159.24 328.182 156.861 327.333 156.582C326.105 156.178 327.61 160.966 327.696 160.589C328.817 155.656 324.265 159.529 324.302 159.511C324.329 159.498 323.089 158.336 322.924 158.316C323.317 158.093 323.734 157.924 324.176 157.81C323.803 158.001 315.696 158.336 321.376 159.652Z" stroke="#B2B2B2" stroke-width="1.28" stroke-miterlimit="10"/>
<path d="M320.029 162.575C320.351 162.879 320.702 163.144 321.082 163.369C320.589 163.416 320.059 160.841 319.107 161.131C319.017 161.828 319.325 162.309 320.029 162.575Z" stroke="#B2B2B2" stroke-width="1.28" stroke-miterlimit="10"/>
<path d="M584.302 208.305C583.597 208.28 582.983 208.489 582.459 208.932C582.752 209.293 587.023 210.286 587.023 209.316C586.238 208.655 585.33 208.319 584.302 208.305Z" stroke="#B2B2B2" stroke-width="1.28" stroke-miterlimit="10"/>
<path d="M511.885 253.64C511.664 252.173 508.375 258.455 510.03 257.55C509.745 257.706 511.402 256.618 511.359 256.864C511.08 256.453 510.788 256.051 510.481 255.661C510.449 256.011 519.957 255.936 519.478 251.812C519.729 254.044 511.556 250.351 512.533 249.713C512.604 249.663 511.85 253.414 511.885 253.64Z" stroke="#B2B2B2" stroke-width="1.28" stroke-miterlimit="10"/>
<path d="M494.374 273.899C494.845 274.844 495.279 272.587 495.531 273.714C495.568 273.88 494.9 277.268 495.997 277.028C496.888 276.833 498.506 273.603 497.113 273.012C496.82 272.888 493.188 271.516 494.374 273.899Z" stroke="#B2B2B2" stroke-width="1.28" stroke-miterlimit="10"/>
<path d="M499.596 273.515C499.92 272.091 501.878 273.78 501.878 271.542C501.878 270.354 499.508 271.571 499.431 271.748C499.124 272.457 499.279 274.913 499.596 273.515Z" stroke="#B2B2B2" stroke-width="1.28" stroke-miterlimit="10"/>
<path d="M502.843 268.653C502.839 268.696 495.611 268.975 496.171 271.516C496.242 271.844 502.265 270.948 502.691 270.849C501.338 271.162 503.985 271.807 504.293 271.782C505.32 271.703 504.538 270.292 504.727 270.175C505.867 269.472 509.335 270.808 510.526 269.183C511.455 267.914 513.57 259.197 511.93 258.258C509.867 257.074 508.85 263.699 507.886 265.052C507.127 266.117 503.063 266.408 502.843 268.653Z" stroke="#B2B2B2" stroke-width="1.28" stroke-miterlimit="10"/>
<path d="M465.496 298.538C465.803 297.915 466.065 297.274 466.285 296.614C466.113 295.951 462.392 296.449 463.142 297.885C463.229 298.053 465.31 300.965 465.496 298.538Z" stroke="#B2B2B2" stroke-width="1.28" stroke-miterlimit="10"/>
<path d="M480.899 292.717C481.611 292.17 483.311 288.497 482.742 287.663C480.841 284.886 479.274 293.96 480.899 292.717Z" stroke="#B2B2B2" stroke-width="1.28" stroke-miterlimit="10"/>
<path d="M479.538 302.775C478.523 306.12 489.342 310.601 487.104 313.17C490.701 309.039 482.983 307.365 482.186 305.472C481.33 303.435 484.968 300.891 482.211 299.273C480.321 298.164 479.584 302.625 479.538 302.775Z" stroke="#B2B2B2" stroke-width="1.28" stroke-miterlimit="10"/>
<path d="M477.652 313.265C476.856 314.051 476.226 314.949 475.764 315.96C475.583 315.601 479.564 313.08 478.837 311.485C478.189 311.868 477.794 312.461 477.652 313.265Z" stroke="#B2B2B2" stroke-width="1.28" stroke-miterlimit="10"/>
<path d="M480.373 307.682C480.505 308.357 480.812 309.754 481.777 309.414C482.743 309.079 480.278 307.199 480.373 307.682Z" stroke="#B2B2B2" stroke-width="1.28" stroke-miterlimit="10"/>
<path d="M486.56 313.458C486.21 312.978 485.333 313.868 485.463 314.229C485.64 314.71 486.912 313.939 486.56 313.458Z" stroke="#B2B2B2" stroke-width="1.28" stroke-miterlimit="10"/>
<path d="M488.01 314.275C487.99 314.239 481.615 318.419 482.699 318.318C483.856 318.214 484.224 316.708 485.326 317.489C486.292 318.172 485.762 320.773 487.878 320.773C486.297 320.773 489.558 317.391 489.414 317.981C489.983 315.629 487.837 313.96 488.01 314.275Z" stroke="#B2B2B2" stroke-width="1.28" stroke-miterlimit="10"/>
<path d="M482.744 310.136C482.18 310.912 482.209 311.65 482.831 312.351C485.583 311.749 481.861 314.452 483.973 314.95C485.816 315.384 485.944 309.437 482.744 310.136Z" stroke="#B2B2B2" stroke-width="1.28" stroke-miterlimit="10"/>
<path d="M527.07 337.809C527.07 339.709 522.171 338.522 522.11 339.108C521.839 341.87 529.645 339.201 528.036 337.184C527.499 337.019 527.178 337.228 527.07 337.809Z" stroke="#B2B2B2" stroke-width="1.28" stroke-miterlimit="10"/>
<path d="M529.046 337.617C530.366 337.236 528.025 335.566 527.752 335.505C528.15 335.595 528.625 337.738 529.046 337.617Z" stroke="#B2B2B2" stroke-width="1.28" stroke-miterlimit="10"/>
<path d="M520.62 340.984C521.81 341.059 516.841 336.859 515.693 336.209C513.134 334.758 508.174 332.499 505.615 332.655C504.87 332.701 503.832 334.981 502.925 334.812C501.103 334.474 502.145 332.529 500.846 331.99C499.729 331.528 499.733 330.282 497.715 330.582C497.377 330.632 495.47 332.143 496.147 332.292C496.52 332.374 500.381 334.525 500.404 333.856C500.394 334.163 498.026 334.149 497.82 334.186C496.751 334.382 501.846 336.879 502.166 337.034C504.416 338.132 506.044 337.898 507.347 340.187C508.585 342.362 505.522 342.346 506.049 343.389C507.004 345.284 514.099 343.601 514.854 343.612C516.933 343.642 516.893 343.546 519.482 344.843C519.412 344.809 525.842 348.055 525.157 346.915C524.873 346.445 519.322 340.906 520.62 340.984Z" stroke="#B2B2B2" stroke-width="1.28" stroke-miterlimit="10"/>
<path d="M422.133 313.796C421.18 313.912 421.16 319.46 422.265 319.907C425.343 321.153 424.598 313.496 422.133 313.796Z" stroke="#B2B2B2" stroke-width="1.28" stroke-miterlimit="10"/>
<path d="M375.48 349.312C375.493 349.366 373.417 352.902 373.066 353.257C372.143 354.193 369.7 354.765 368.963 355.616C366.935 357.955 368.305 358.998 367.948 362.443C367.695 364.869 364.841 374.684 371.397 371.493C375.181 369.651 374.403 358.852 375.814 355.297C375.998 354.835 377.015 356.342 376.995 354.381C376.974 352.517 375.904 351.012 375.48 349.312Z" stroke="#B2B2B2" stroke-width="1.28" stroke-miterlimit="10"/>
<path d="M381.92 309.112C382.411 309.67 383.378 309.02 383.429 308.797C383.481 308.573 381.366 308.484 381.92 309.112Z" stroke="#B2B2B2" stroke-width="1.28" stroke-miterlimit="10"/>
<path d="M539.118 345.425C539.25 346.147 540.237 346.579 540.632 346.327C541.026 346.074 538.982 344.678 539.118 345.425Z" stroke="#B2B2B2" stroke-width="1.28" stroke-miterlimit="10"/>
<path d="M534.444 340.984C534.411 341.165 535.464 342.283 535.695 342.104C535.924 341.924 534.503 340.659 534.444 340.984Z" stroke="#B2B2B2" stroke-width="1.28" stroke-miterlimit="10"/>
<path d="M539.382 343.872C539.744 343.62 537.344 342.177 537.308 342.644C537.275 343.078 539.019 344.125 539.382 343.872Z" stroke="#B2B2B2" stroke-width="1.28" stroke-miterlimit="10"/>
<path d="M531.636 338.963C531.547 339.397 532.955 341.687 533.479 341.322C534.444 340.649 531.723 338.531 531.636 338.963Z" stroke="#B2B2B2" stroke-width="1.28" stroke-miterlimit="10"/>
<path d="M540.665 343.8C540.336 344.595 541.653 345.966 541.85 346.002C542.047 346.038 540.918 343.188 540.665 343.8Z" stroke="#B2B2B2" stroke-width="1.28" stroke-miterlimit="10"/>
<path d="M541.816 347.012C541.882 347.192 542.738 348.059 543.165 347.734C543.593 347.41 541.704 346.703 541.816 347.012Z" stroke="#B2B2B2" stroke-width="1.28" stroke-miterlimit="10"/>
<path d="M494.778 349.322C495.107 349.61 496.753 349.251 496.688 348.817C496.623 348.384 494.28 348.884 494.778 349.322Z" stroke="#B2B2B2" stroke-width="1.28" stroke-miterlimit="10"/>
<path d="M529.669 377.078C529.605 377.13 528.875 372.311 529.282 372.503C526.481 371.187 522.39 365.353 520.375 362.269C518.845 359.93 518.388 357.458 517.163 354.568C516.527 353.068 515.234 354.195 514.788 353.216C514.135 351.786 514.767 348.791 513.376 347.482C512.312 346.486 511.74 354.635 511.73 354.665C510.24 358.902 511.123 358.973 507.313 357.623C506.216 357.234 502.92 355.543 502.624 354.089C502.377 352.873 505.252 350.813 504.87 350.042C505.157 350.621 497.953 347.999 497.806 348.061C497.622 348.531 497.808 348.892 498.365 349.144C496.383 346.828 493.128 355.098 494.103 354.964C494.571 354.9 491.169 354.432 492.104 354.973C489.661 353.559 490.04 352.147 487.121 354.246C485.225 355.61 485.893 357.445 484.77 358.673C484.477 358.995 484.274 357.007 483.824 357.311C482.258 358.368 483.478 359.727 482.052 360.892C480.297 362.326 479.416 362.419 477.481 363.378C474.953 364.631 473.151 365.007 470.948 367.082C470.73 366.784 470.676 366.447 470.783 366.072C470.783 366.596 470.158 368.238 470.091 369.103C470.021 370.019 470.921 373.345 470.683 373.868C470.291 373.697 469.994 373.421 469.794 373.038C469.975 373.408 470.118 373.793 470.223 374.193C469.871 373.906 469.52 373.617 469.17 373.327C468.746 374.372 471.915 379.951 472.215 381.189C472.371 381.837 472.338 387.851 472.066 387.295C474.094 391.447 477.023 388.608 480.37 387.625C483.113 386.819 484.883 386.235 487.538 385.238C489.583 384.47 493.939 382.932 496.161 383.29C497.538 383.511 504.398 388.886 502.835 389.587C503.309 389.375 506.131 385.873 506.3 386.033C507.182 386.86 504.863 389.085 504.753 389.605C504.329 391.619 507.065 388.023 506.337 388.604C507.327 387.816 506.857 391.057 506.761 390.797C506.664 390.528 510.012 395.087 510.322 395.352C512.212 396.971 516.891 395.469 516.845 395.435C516.916 395.802 516.916 396.166 516.845 396.532C516.422 396.006 518.405 397.195 518.877 397.647C517.913 396.728 524.393 394.705 524.206 394.913C525.203 393.806 525.769 388.653 526.547 386.982C527.137 385.709 529.097 377.55 529.669 377.078Z" stroke="#B2B2B2" stroke-width="1.28" stroke-miterlimit="10"/>
<path d="M504.094 391.552C504.456 391.913 505.674 391.804 505.871 391.299C506.068 390.793 503.769 391.228 504.094 391.552Z" stroke="#B2B2B2" stroke-width="1.28" stroke-miterlimit="10"/>
<path d="M518.972 401.585C518.098 401.41 517.253 401.147 516.438 400.792C516.887 400.658 516.522 407.606 520.228 405.651C522.109 404.658 522.827 401.116 518.972 401.585Z" stroke="#B2B2B2" stroke-width="1.28" stroke-miterlimit="10"/>
<path d="M550.835 413.713C551.065 413.784 551.822 413.568 551.394 412.992C550.965 412.415 550.291 413.542 550.835 413.713Z" stroke="#B2B2B2" stroke-width="1.28" stroke-miterlimit="10"/>
<path d="M565.715 395.45C564.83 397.067 562.899 393.019 562.72 393.032C562.534 393.317 562.522 393.617 562.686 393.934C562.842 393.706 559.764 389.531 559.132 389.531C559.056 389.531 561.34 394.036 561.534 394.602C562.223 396.595 559.971 396.523 560.053 397.617C560.047 397.53 561.684 402.317 561.601 402.163C563.52 405.692 567.529 392.125 565.715 395.45Z" stroke="#B2B2B2" stroke-width="1.28" stroke-miterlimit="10"/>
<path d="M560.348 401.261C558.503 399.817 547.38 409.752 550.736 412.017C554.19 414.345 561.958 402.524 560.348 401.261Z" stroke="#B2B2B2" stroke-width="1.28" stroke-miterlimit="10"/>
<path d="M567.653 358.129C568.016 358.273 569.201 357.841 569.201 357.226C569.201 356.613 567.107 357.911 567.653 358.129Z" stroke="#B2B2B2" stroke-width="1.28" stroke-miterlimit="10"/>
<path d="M565.615 360.042C566.175 360.621 567.294 360.584 567.326 359.537C567.36 358.489 565.116 359.528 565.615 360.042Z" stroke="#B2B2B2" stroke-width="1.28" stroke-miterlimit="10"/>
<path d="M374.821 155.224C374.249 155.357 373.782 155.645 373.417 156.091C374.034 157.444 379.727 154.737 379.748 154.346C379.844 152.564 375.149 154.71 374.821 155.224Z" stroke="#B2B2B2" stroke-width="1.28" stroke-miterlimit="10"/>
<path d="M383.028 155.995C383.028 155.224 380.743 156.073 381.185 156.234C381.58 156.379 383.028 156.764 383.028 155.995Z" stroke="#B2B2B2" stroke-width="1.28" stroke-miterlimit="10"/>
<path d="M372.715 154.84C373.515 154.481 374.35 154.304 375.217 154.31C375.506 153.521 370.135 154.318 370.303 154.744C371.008 155.496 371.812 155.528 372.715 154.84Z" stroke="#B2B2B2" stroke-width="1.28" stroke-miterlimit="10"/>
<path d="M374.952 193.29C376.23 194.588 377.009 192.706 377.675 192.436C378.588 192.069 372.595 190.899 374.952 193.29Z" stroke="#B2B2B2" stroke-width="1.28" stroke-miterlimit="10"/>
<path d="M384.39 178.757C384.127 178.742 379.442 184.073 379.388 184.339C379.36 184.477 381.924 186.593 381.757 186.71C381.538 186.251 381.623 185.919 382.012 185.711C381.77 185.647 388.361 191.222 388.647 188.046C388.726 187.204 385.75 185.37 385.625 184.191C385.486 182.854 386.795 181.777 387.288 180.683C387.778 179.595 389.519 177.444 390.276 176.746C392.23 174.941 406.396 169.001 405.766 168.459C404.262 167.171 391.63 171.302 389.577 172.581C388.423 173.295 384.426 178.76 384.39 178.757Z" stroke="#B2B2B2" stroke-width="1.28" stroke-miterlimit="10"/>
<path d="M522.946 175.726C524.305 176.033 525.49 175.776 526.5 174.955C526.81 171.633 512.18 174.955 522.946 175.726Z" stroke="#B2B2B2" stroke-width="1.28" stroke-miterlimit="10"/>
<path d="M511.71 177.409C511.71 176.687 509.319 177.674 510.306 178.035C510.832 178.228 511.71 178.131 511.71 177.409Z" stroke="#B2B2B2" stroke-width="1.28" stroke-miterlimit="10"/>
<path d="M449.432 164.512C450.311 165.062 458.206 163.749 458.472 162.202C458.739 160.636 453.898 160.206 454.05 161.413C453.178 154.492 450.572 165.226 449.432 164.512Z" stroke="#B2B2B2" stroke-width="1.28" stroke-miterlimit="10"/>
<path d="M442.63 157.727C442.189 158.136 441.851 158.618 441.619 159.171C443.828 161.289 449.213 162.916 449.675 159.2C450.076 155.99 442.63 156.886 442.63 157.727Z" stroke="#B2B2B2" stroke-width="1.28" stroke-miterlimit="10"/>
<path d="M440.303 156.379C441.735 157.039 439.051 157.114 438.879 157.199C438.113 157.582 441.734 157.375 442.383 157.114C442.882 156.913 447.829 155.438 446.947 154.346C443.385 149.937 439.615 156.063 440.303 156.379Z" stroke="#B2B2B2" stroke-width="1.28" stroke-miterlimit="10"/>
<path d="M468.391 176.543C467.375 178.771 470.169 177.201 470.191 176.832C469.687 176.156 469.086 176.06 468.391 176.543Z" stroke="#B2B2B2" stroke-width="1.28" stroke-miterlimit="10"/>
<path d="M384.038 154.214C384.752 154.998 389.035 155.085 389.217 153.686C389.278 153.215 385.66 152.575 385.432 152.612C386.058 152.509 384.42 154.632 384.038 154.214Z" stroke="#B2B2B2" stroke-width="1.28" stroke-miterlimit="10"/>
<path d="M439.162 152.964C439.339 152.242 436.424 152.556 437.187 153.252C437.451 153.492 438.987 153.684 439.162 152.964Z" stroke="#B2B2B2" stroke-width="1.28" stroke-miterlimit="10"/>
<path d="M570.432 187.804C570.628 187.951 574.506 187.692 573.739 186.776C571.924 184.608 568.034 187.693 568.325 187.853C569.026 187.814 569.729 187.799 570.432 187.804Z" stroke="#B2B2B2" stroke-width="1.28" stroke-miterlimit="10"/>
<path d="M506.047 174.426C507.53 175.241 509.048 175.726 510.83 175.388C511.973 175.172 515.037 173.386 513.875 172.97C514.429 173.169 516.031 176.84 516.974 174.002C517.76 171.639 515.529 172.201 513.506 171.538C513.332 171.48 509.725 171.391 509.706 171.396C510.269 171.282 502.669 172.573 506.047 174.426Z" stroke="#B2B2B2" stroke-width="1.28" stroke-miterlimit="10"/>
<path d="M515.221 180.586C517.546 180.022 509.196 177.226 510.832 179.817C511.356 180.645 514.446 180.774 515.221 180.586Z" stroke="#B2B2B2" stroke-width="1.28" stroke-miterlimit="10"/>
<path d="M331.45 255.996C329.701 255.008 324.195 248.788 323.495 248.756C318.372 248.525 328.89 259.761 330.008 260.101C329.488 259.575 328.858 259.364 328.119 259.466C327.936 259.571 328.525 263.844 326.83 263.844C329.832 263.844 319.26 254.167 319.35 254.236C316.632 252.124 318.614 252.577 315.442 252.413C316.05 252.445 308.639 253.732 309.363 253.28C306.17 255.272 304.913 260.154 302.816 262.966C300.173 266.51 296.821 267.155 293.644 266.125C289.118 264.657 288.973 262.342 290.252 256.818C290.879 254.104 288.602 254.246 291.523 252.654C293.072 251.809 297.746 254.322 299.648 253.353C303.756 251.26 301.013 247.894 299.244 245.07C297.955 243.013 295.771 245.07 297.229 242.355C297.769 241.348 300.074 243.415 300.871 242.74C301.65 242.083 299.98 240.753 300.846 240.262C301.238 240.041 303.729 240.355 304.929 239.808C305.523 239.537 306.995 237.766 307.626 237.129C309.124 235.617 310.528 233.848 311.587 233.165C312.375 232.655 316.6 231.871 316.978 231.117C317.472 230.129 315.492 227.83 315.529 226.811C315.643 223.661 316.383 225.016 317.13 224.259C317.137 224.252 318.311 221.605 319.018 222.382C320.067 223.534 318.053 226.932 318.25 227.243C318.654 227.873 319.713 226.944 319.457 228.351C319.323 229.097 317.676 227.904 317.636 228.207C317.422 229.843 319.374 229.718 320.007 229.891C319.912 230.255 319.917 230.621 320.021 230.989C320.517 231.365 323.218 228.827 323.693 229.505C324.817 231.108 323.602 230.789 325.901 230.499C326.967 230.364 331.382 229.888 331.241 229.939C332.883 229.34 335.493 228.625 334.175 225.669C332.826 222.947 336.462 222.67 336.67 222.501C337.281 222.003 337.58 223.781 339.053 221.444C340.286 220.027 335.548 220.122 340.457 217.766C340.12 217.928 347.768 217.096 347.217 216.439C346.843 215.988 344.772 215.195 344.359 215.31C344.567 214.967 344.816 214.597 345.066 214.322C344.814 214.598 344.563 214.97 344.356 215.311C341.831 216 337.436 217.697 335.144 215.398C334.567 214.82 334.111 210.126 334.741 208.933C334.998 208.445 345.188 198.807 336.915 201.537C335.137 202.123 333.599 205.984 332.645 207.319C331.472 208.963 329.68 209.185 329.111 211.48C328.12 215.48 331.171 214.196 331.196 216.919C331.216 219.003 327.955 221.163 327.652 223.9C327.985 224.18 328.254 224.051 328.461 223.515C327.949 223.659 324.753 228.328 323.212 227.75C322.898 227.631 319.63 217.464 319.216 217.714C318.523 218.127 317.884 220.043 316.676 220.315C317.563 220.116 310.032 222.147 311.754 219.517C311.891 219.311 312.917 218.824 312.743 218.363C312.488 217.683 311.12 219.023 311.12 218.387C311.12 218.267 311.305 216.897 311.374 216.841C311.258 216.937 313.801 217.769 313.292 216.014C313.119 215.418 310.894 216.558 311.448 213.14C311.377 213.583 313.865 207.926 314.849 210.085C314.486 209.981 314.224 209.765 314.06 209.436C314.977 208.063 315.875 209.49 316.056 207.649C316.144 206.755 317.173 208.182 317.285 208.088C318.81 206.834 318.826 206.129 320.659 205.412C321.197 205.201 319.605 204.141 319.875 204.022C323.096 202.614 324.118 196.939 327.565 195.546C327.587 195.537 327.775 194.277 327.774 194.276C326.55 193.135 323.935 196.063 322.789 195.999C323.117 196.017 327.191 192.067 327.203 192.086C327.07 192.53 326.953 192.979 326.852 193.432C326.755 193.35 329.347 193.355 329.353 193.318C329.58 192.088 328.12 192.659 328.081 192.398C328.026 192.042 331.091 189.766 331.208 189.715C332.727 189.052 332.498 190.223 333.594 190.939C334.19 191.328 333.646 189.265 333.563 189.315C333.468 189.372 335.552 190.154 335.52 189.992C335.157 189.8 334.879 189.527 334.686 189.172C335.249 189.097 335.807 189.117 336.359 189.234C336.265 188.806 336.059 188.435 335.742 188.118C335.708 187.583 337.948 187.636 337.866 187.322C337.691 186.65 335.894 190.283 337.319 189.848C336.237 190.177 339.923 187.451 339.184 188.077C339.177 188.082 341.53 185.458 341.746 186.822C341.755 186.88 339.492 189.526 340.26 189.367C340.964 188.604 341.671 187.843 342.38 187.082C342.746 186.842 342.392 188.645 342.606 188.645C343.198 188.645 344.106 184.842 345.183 186.895C345.226 186.977 344.428 188.586 344.947 188.6C344.296 188.582 349.591 185.894 349.037 188.91C348.973 189.262 346.387 189.963 346.294 189.606C346.785 191.467 348.438 189.768 349.124 190.522C349.4 190.802 351.921 189.585 352.064 190.787C351.735 191.013 351.369 191.141 350.967 191.171C351.847 190.08 362.133 194.433 363.104 196.175C368.16 205.235 351.623 197.368 350.486 197.931C352.11 197.128 356.1 205.898 356.827 206.473C359.766 208.796 359.222 204.175 357.53 205.126C356.814 204.36 356.967 203.741 357.991 203.274C358.551 203.647 359.114 204.015 359.68 204.38C360.117 204.042 362.878 205.731 362.994 204.886C363.684 199.9 363.689 202.907 367.176 200.119C367.368 199.967 370.867 200.178 367.847 198.008C369.064 198.883 367.483 193.793 367.547 194.066C367.318 193.097 373.743 194.746 372.474 196.274C372.135 196.683 368.103 196.695 370.721 198.464C373.503 200.342 373.18 197.514 374.7 196.851C375.795 196.372 383.675 193.816 383.621 193.217C383.708 194.155 382.901 194.504 382.417 194.904C381.956 195.287 387.994 194.276 387.944 194.281C391.692 193.942 390.008 194.094 391.632 194.757C395.776 196.436 391.486 188.623 390.732 189.055C393.58 187.415 402.934 195.634 405.237 195.237C408.53 194.701 402.846 191.019 402.867 191.076C403.104 191.676 403.294 186.874 403.219 187.881C403.489 184.232 408.705 178.353 411.825 183.507C411.789 183.448 411.497 189.908 411.612 190.522C412.016 192.668 412.949 194.159 412.392 196.032C411.51 198.996 406.217 199.67 406.27 199.521C405.909 200.544 409.874 200.754 410.316 200.655C411.93 200.294 413.511 198.155 414.668 196.681C415.656 195.42 413.133 193.91 415.788 193.451C417.65 193.13 417.192 194.346 418.601 194.949C416.535 194.065 421.278 199.592 420.576 197.307C419.255 192.941 415.322 194.451 413.211 191.589C412.423 190.52 413.527 181.066 415.529 181.738C417.481 182.397 414.983 185.387 415.903 186.431C415.959 186.496 420.617 187.438 420.593 187.466C420.941 187.055 416.565 185.583 417.043 184.651C417.639 183.489 418.917 184.712 419.762 184.477C420.193 184.357 418.272 183.017 418.409 182.88C420.024 181.274 425.546 186.086 426.391 184.915C428.497 181.997 417.5 181.258 428.536 178.927C429.325 178.76 432.083 179.002 432.558 178.563C433.353 177.829 431.564 176.819 431.592 176.782C431.967 176.79 432.339 176.765 432.711 176.709C432.69 176.566 431.091 175.814 431.24 175.651C431.664 175.686 432.088 175.711 432.513 175.723C433.23 174.761 432.37 174.833 434.049 174.052C434.563 173.814 441.662 171.384 441.731 171.922C441.343 171.814 441.043 171.589 440.831 171.249C440.862 171.181 445.449 170.152 445.616 170.333C445.467 170.634 445.328 170.939 445.198 171.249C445.415 171.328 449.697 170.376 449.543 170.888C449.191 170.65 448.869 170.377 448.576 170.07C448.694 172.299 452.28 167.552 451.528 168.1C453.006 167.025 457.056 163.622 458.803 166.291C459.324 167.095 456.997 167.488 456.663 167.619C457.146 167.43 460.997 168.476 460.997 168.169C460.577 168.631 460.219 169.137 459.922 169.686C462.636 170.373 464.952 168.059 468.023 169.513C470.432 170.653 469.709 171.638 469.971 172.79C470.858 176.654 459.984 177.643 458.536 181.362C458.682 180.989 465.399 179.914 465.319 179.214C465.015 179.141 464.716 179.054 464.42 178.95C463.95 178.387 469.249 178.289 469.635 178.356C470.422 178.493 469.792 180.443 470.322 180.393C472.36 180.197 474.91 178.666 478.157 179.517C478.569 179.625 477.604 180.119 477.718 180.512C477.929 181.24 484.214 181.512 484.872 181.396C485.313 181.318 485.568 178.71 486.793 178.452C488.47 178.1 496.312 182.76 494.067 184.074C493.503 184.105 492.972 183.997 492.474 183.753C493.367 183.695 494.716 187.907 496.478 188.009C497.667 188.078 498.414 184.65 499.094 184.806C499.628 184.929 507.472 186.386 507.479 186.422C507.158 186.292 506.876 186.106 506.634 185.862C507.098 185.507 509.946 186.03 509.932 185.833C510.012 186.871 509.072 183.423 509.865 183.86C509.468 184.045 509.074 184.036 508.681 183.836C507.456 182.141 519.898 180.678 519.477 183.163C519.415 183.548 516.656 182.784 517.152 183.597C517.729 183.715 518.285 183.9 518.819 184.15C518.448 184.439 518.06 184.704 517.655 184.943C517.715 184.704 523.477 181.992 524.896 184.365C525.535 185.432 523.123 184.657 523.338 185.299C524.069 187.483 531.294 187.386 532.768 187.499C537.594 187.873 537.228 188.275 539.815 190.475C539.79 190.455 542.734 193.01 542.099 193.316C542.837 192.952 541.88 191.364 543.679 191.533C544.327 191.593 547.054 191.967 547.816 191.854C548.652 191.731 554.35 190.205 554.213 191.295C554.046 192.646 553.024 191.307 552.519 191.543C551.866 191.846 554.725 194.386 555.331 194.012C556.635 193.208 555.688 191.11 555.552 191.173C557.16 190.435 561.669 190.339 564.309 190.908C569.065 191.936 577.548 196.477 578.812 200.63C579.044 201.393 578.456 197.281 578.353 198.849C578.446 197.445 585.249 201.515 585.2 201.496C585.983 201.796 582.542 202.984 583.041 202.67C582.911 202.751 583.893 203.325 583.466 203.325C582.911 203.196 582.354 203.068 581.799 202.94C582.07 203.159 580.714 205.28 580.681 205.348C580.99 205.581 581.208 205.876 581.339 206.239C579.702 207.818 571.071 201.618 572.122 201.041C570.266 202.054 571.699 203.115 570.646 203.732C569.924 204.155 564.909 206.132 564.595 205.107C565.4 207.762 571.196 207.543 567.47 211.098C566.999 211.548 561.269 213.011 559.966 213.77C558.503 214.623 556.696 216.996 555.468 217.331C555.71 217.266 548.67 215.011 549.28 217.476C549.42 216.936 549.316 216.463 548.973 216.056C548.613 216.056 545.412 217.842 545.031 218.3C542.445 221.403 544.278 221.091 544.839 222.767C544.583 222.004 543.871 227.205 544.803 226.283C544.723 226.36 534.773 237.88 535.059 238.194C533.216 236.165 532.984 228.622 533.751 226.222C534.958 222.442 536.31 222.779 539.076 220.388C541.197 218.555 547.451 213.345 547.68 211.103C547.836 209.564 540.415 216.092 540.129 215.455C540.196 215.597 540.074 212.407 540.414 212.64C537.761 210.821 530.527 216.427 532.657 218.821C532.958 219.16 526.227 220.087 526.805 219.615C527.185 219.561 527.546 219.444 527.885 219.267C528.225 218.699 518.403 218.465 517.306 218.623C512.872 219.259 511.223 221.577 507.972 224.605C506.948 225.559 503.059 228.138 502.844 229.475C502.985 228.598 506.691 231.331 505.302 231.651C505.215 231.671 506.524 230.328 506.468 230.522C506.433 230.639 506.217 232.439 506.471 232.422C508.673 232.28 509.11 228.91 511.425 232.587C512.613 234.474 511.226 237.106 510.684 239.283C509.642 243.475 508.287 246.276 505.5 249.792C504.302 251.304 502.701 253.761 500.819 254.56C498.81 255.414 498.549 253.309 496.718 254.765C495.53 255.693 493.467 258.417 492.94 259.703C491.482 263.258 491.912 259.377 492.485 263.324C492.757 265.189 495.396 266.947 494.076 269.03C493.957 269.219 489.845 271.3 489.523 270.799C488.749 269.579 490.304 266.912 490.056 266.108C489.74 265.083 488.005 264.745 487.989 264.712C488.344 265.426 485.956 261.317 487.721 262.455C483.904 259.995 486.441 263.109 481.697 262.834C481.353 262.813 483.049 259.115 482.897 258.984C482.245 258.422 476.263 262.514 476.215 263.057C476.208 263.14 478.976 265.742 479.276 265.891C477.439 264.986 485.889 264.351 483.555 266.156C482.057 267.314 479.113 267.354 478.756 269.834C478.732 270.004 482.757 275.475 482.524 275.731C482.913 275.302 480.429 275.491 480.374 275.491C483.377 275.491 481.728 279.142 481.016 278.632C481.38 278.894 482.618 278.772 483.026 278.9C482.595 278.765 478.96 286.833 478.166 287.803C476.894 289.357 464.499 295.517 464.772 295.8C463.386 294.356 464.476 292.823 461.348 294.043C456.854 295.795 459.446 299.447 460.764 301.966C463.401 307 465.143 308.132 460.56 312.499C460.398 312.653 457.381 315.548 457.114 315.371C457.274 315.478 455.098 311.702 454.907 311.488C454.38 310.899 451.52 307.133 450.25 307.563C445.957 309.018 450.715 317.046 451.831 318.519C452.708 319.675 457.966 326.596 456.037 327.587C453.358 328.951 447.856 317.597 447.436 315.987C446.707 313.193 447.533 309.5 446.785 306.358C444.507 296.776 445.266 305.667 441.951 302.898C440.373 301.58 440.772 293.268 437.758 291.612C436.425 290.883 430.867 295.996 430.017 296.84C425.336 301.487 423.28 302.678 422.111 308.861C417.924 331.025 411.953 293.257 410.746 292.646C412.067 293.316 404.471 297.752 405.567 292.358C406.334 292.321 407.022 292.064 407.629 291.588C407.629 292.948 402.483 288.065 402.8 288.219C400.736 287.218 400.152 287.24 397.402 287.162C394.816 287.087 392.14 287.491 389.567 286.667C388.657 286.376 387.809 285.065 387.568 284.995C387 284.831 384.81 284.954 384.366 284.754C382.225 283.79 375.971 278.015 374.926 278.58C373.179 279.526 376.503 286.449 377.831 287.447C377.848 287.461 378.303 285.649 378.925 285.837C380.295 286.251 378.001 289.101 380.286 289.311C383.121 289.572 384.91 285.251 386.341 285.38C385.624 285.311 391.274 291.978 391.387 292.744C391.514 293.599 387.834 297.934 387.504 298.278C384.415 301.499 379.12 304.152 374.556 306.147C372.008 307.261 368.387 309.098 366.692 307.252C365.445 305.893 365.628 301.894 364.791 300.083C362.981 296.169 360.622 292.852 358.8 289.085C358.148 287.74 355.026 280.696 354.016 280.087C353.85 280.909 353.55 281.678 353.116 282.397C352.085 282.397 351.022 278.021 350.636 278.162C350.865 278.079 357.52 296.337 357.987 297.647C359.067 300.682 361.633 302.917 363.478 305.16C364.667 306.607 366.746 310.788 366.615 310.705C366.608 310.714 366.6 310.726 366.592 310.735C366.6 310.726 366.609 310.715 366.616 310.706C370.629 313.275 374.535 308.239 378.07 309.55C383.173 311.442 366.742 328.758 365.361 330.257C362.033 333.871 359.55 337.367 360.465 342.218C361.324 346.767 364.412 351.707 361.43 356.182C359.991 358.34 356.287 358.703 354.931 361.1C353.249 364.076 355.189 364.067 354.734 367.171C354.096 371.535 352.679 369.714 350.394 373.066C350.492 372.92 349.617 377.443 349.194 378.245C345.8 384.696 342.113 386.729 335.624 387.526C328.891 388.353 330.706 387.053 328.589 381.046C327.029 376.619 325.599 373.777 324.615 369.117C324.065 366.519 320.521 360.655 320.767 358.159C320.92 354.454 323.401 351.525 323.863 348.136C324.292 344.983 322.268 339.553 320.681 336.794C318.748 333.434 317.499 332.946 317.432 329.628C317.424 329.222 318.36 326.616 318.052 325.806C316.416 322.116 317.655 323.866 314.458 321.848C313.886 321.487 313.011 322.487 312.429 322.22C311.745 321.906 311.948 320.622 311.424 320.365C311.062 320.187 308.227 318.78 308.001 318.523C307.58 317.98 303.542 320.241 303.148 320.343C300.141 321.126 296.984 321.974 293.718 321.658C287.693 321.074 283.971 316.351 280.824 311.241C279.438 308.988 278.138 307.837 278.047 304.977C277.964 302.362 278.791 299.552 278.894 296.916C279.007 294.067 278.248 293.555 279.528 290.305C280.583 287.627 282.451 284.588 284.353 282.566C285.089 281.783 286.412 281.652 287.063 280.666C288.058 279.16 287.899 277.789 288.506 276.737C289.281 275.391 289.941 273.915 290.771 272.581C290.103 273.655 295.606 268.634 293.852 269.56C295.516 268.681 294.753 269.469 296.632 268.977C298.858 268.393 300.794 268.585 303.171 267.913C305.662 267.208 307.39 266.395 310.171 266.081C312.11 265.862 318.926 264.602 319.925 266.012C321.559 268.321 317.866 270.161 320.067 272.436C322.221 274.665 330.596 277.517 332.545 276.74C332.659 276.694 332.351 274.509 333.432 273.94C336.695 272.225 335.413 274.244 337.884 274.578C339.409 274.784 340.634 275.519 342.163 275.805C347.92 276.884 352.378 278.001 354.666 272.54M331.45 255.996C331.473 255.858 331.512 255.72 331.562 255.588M331.45 255.996C329.729 254.991 336.045 265.624 336.045 263.145C336.045 260.959 333.196 268.567 336.923 266.514C336.929 265.953 336.842 265.408 336.659 264.878C337.006 264.955 337.349 264.939 337.69 264.829C338.227 264.159 336.557 264.251 336.895 263.898C337.297 263.478 339.024 264.549 338.773 263.133C338.468 261.408 337.535 263.174 336.899 262.447C337.101 262.678 336.629 259.007 336.329 259.137C336.917 259.311 337.517 259.428 338.129 259.488C339.117 259.046 344.402 259.087 345.678 257.805C345.344 258.143 343.561 254.975 343.68 254.363C343.85 253.495 345.814 250.929 346.208 250.368C346.812 249.512 347.09 247.533 348.355 246.949C349.144 246.584 352.677 246.717 352.874 247.795C352.275 248.294 351.616 248.695 350.899 249C350.832 248.63 352.498 251.051 352.458 250.996C352.373 250.88 357.009 249.797 357.066 249.697C357.335 249.23 352.917 249.486 355.044 247.227C355.542 246.698 360.494 244.845 360.841 245.606C360.92 245.78 357.361 249.137 357.482 249.72C357.95 251.946 364.755 253.153 364.53 255.583C364.225 258.862 360.318 257.71 358.023 257.668C357.047 257.65 356.274 256.566 355.32 256.507C352.184 256.31 350.353 257.033 347.399 257.857C343.608 258.916 339.4 260.874 343.797 265.356C345.861 267.46 347.872 266.582 350.204 266.61C350.966 266.619 355.639 265.605 356.274 266.012C356.979 266.463 354.913 271.954 354.666 272.54M354.666 272.54C354.925 272.66 355.184 272.782 355.443 272.902L355.416 272.891M354.666 272.54L355.416 272.891M355.416 272.891C355.4 273.051 355.383 273.215 355.365 273.376C355.383 273.215 355.401 273.051 355.416 272.891Z" stroke="#B2B2B2" stroke-width="1.28" stroke-miterlimit="10"/>
<path d="M396.195 154.454C397.533 152.567 390.347 153.61 391.982 155.031C392.747 155.695 395.58 155.32 396.195 154.454Z" stroke="#B2B2B2" stroke-width="1.28" stroke-miterlimit="10"/>
<path d="M388.69 155.369C388.021 155.652 387.342 155.904 386.652 156.125C385.758 157.13 391.188 156.964 391.541 155.802C391.758 155.094 388.623 155.177 388.69 155.369Z" stroke="#B2B2B2" stroke-width="1.28" stroke-miterlimit="10"/>
<path d="M388.472 152.771C388.836 152.771 391.258 151.803 391.192 151.711C390.623 150.929 386.618 152.456 386.54 152.192C387.076 152.671 387.72 152.863 388.472 152.771Z" stroke="#B2B2B2" stroke-width="1.28" stroke-miterlimit="10"/>
<path d="M513.202 237.468C514.134 239.77 511.354 246.44 512.807 248.296C511.821 247.034 515.026 248.431 515.044 248.44C515.029 248.433 513.768 244.607 513.84 244.447C515.001 241.853 516.175 243.069 516.554 242.557C517.254 241.612 513.154 231.158 513.729 230.779C512.121 231.837 512.712 236.264 513.202 237.468Z" stroke="#B2B2B2" stroke-width="1.28" stroke-miterlimit="10"/>
<path d="M407.868 180.972C408.696 181.03 409.456 180.838 410.15 180.394C411.105 178.566 405.895 180.639 407.868 180.972Z" stroke="#B2B2B2" stroke-width="1.28" stroke-miterlimit="10"/>
<path d="M421.826 181.163C421.739 180.394 420.127 181.387 420.686 181.693C421.387 182.079 421.914 181.933 421.826 181.163Z" stroke="#B2B2B2" stroke-width="1.28" stroke-miterlimit="10"/>
<path d="M399.398 154.214C399.84 153.981 400.281 153.75 400.724 153.517C401.155 152.042 396.77 153.862 396.94 154.07C397.735 154.422 398.554 154.47 399.398 154.214Z" stroke="#B2B2B2" stroke-width="1.28" stroke-miterlimit="10"/>
<path d="M545.722 363.955C545.81 364.533 549.497 367.612 550.023 367.227C550.55 366.843 545.631 363.355 545.722 363.955Z" stroke="#B2B2B2" stroke-width="1.28" stroke-miterlimit="10"/>
<path d="M186.566 287.457C185.74 285.91 186.741 290.546 187.124 289.681C187.124 289.681 186.354 287.06 186.566 287.457Z" stroke="#B2B2B2" stroke-width="1.28" stroke-miterlimit="10"/>
<path d="M210.835 312.975C211.932 313.21 212.282 312.843 211.887 311.876C211.116 311.156 210.471 312.604 210.835 312.975Z" stroke="#B2B2B2" stroke-width="1.28" stroke-miterlimit="10"/>
<path d="M462.117 334.488C462.117 334.056 460.984 334.266 461.327 334.874C461.678 335.498 462.117 334.921 462.117 334.488Z" stroke="#B2B2B2" stroke-width="1.28" stroke-miterlimit="10"/>
<path d="M471.157 343.776C471.736 343.928 472.321 343.945 472.913 343.825C473.698 343.18 468.7 342.321 468.832 342.381C468.966 341.66 469.463 341.292 470.323 341.272C469.025 342.145 457.634 338.309 458.391 341.009C458.699 342.106 470.668 344.541 471.157 343.776Z" stroke="#B2B2B2" stroke-width="1.28" stroke-miterlimit="10"/>
<path d="M484.673 343.825C485.805 343.834 485.966 343.674 485.157 343.343C484.571 343.249 479.123 343.828 479.232 344.065C479.937 345.61 483.686 343.885 484.673 343.825Z" stroke="#B2B2B2" stroke-width="1.28" stroke-miterlimit="10"/>
<path d="M475.852 343.247C475.433 344.288 474.402 342.888 473.872 343.593C472.772 345.058 477.622 345.028 478.047 344.017C478.295 343.429 476.046 342.767 475.852 343.247Z" stroke="#B2B2B2" stroke-width="1.28" stroke-miterlimit="10"/>
<path d="M462.949 328.714C466.26 332.106 464.649 335.03 470.114 335.313C474.656 335.548 474.918 331.926 477.871 328.232C477.678 328.472 475.914 324.324 475.934 323.933C476.028 322.164 478.129 322.426 478.485 321.253C478.853 320.045 474.266 319.24 474.025 319.292C472.544 319.617 473.291 322.231 470.746 322.03C470.665 322.016 466.3 327.041 466.284 327.078C466.615 326.295 460.643 326.355 462.949 328.714Z" stroke="#B2B2B2" stroke-width="1.28" stroke-miterlimit="10"/>
<path d="M445.613 327.414C445.525 327.895 446.007 329.29 446.535 328.713C447.062 328.136 445.699 326.943 445.613 327.414Z" stroke="#B2B2B2" stroke-width="1.28" stroke-miterlimit="10"/>
<path d="M447.765 331.553C447.678 331.793 448.161 332.755 448.467 332.467C448.774 332.178 448.042 330.792 447.765 331.553Z" stroke="#B2B2B2" stroke-width="1.28" stroke-miterlimit="10"/>
<path d="M458.692 336.895C458.56 334.877 459.701 335.405 459.69 334.103C459.685 333.539 457.841 331.811 457.809 332.858C458.162 333.203 458.472 333.587 458.735 334.007C458.358 334.973 453.852 328.111 453.619 327.853C452.566 326.674 443.48 319.667 443.067 320.627C442.778 321.303 450.067 331.771 451.011 333.092C452.051 334.548 459.104 343.319 458.692 336.895Z" stroke="#B2B2B2" stroke-width="1.28" stroke-miterlimit="10"/>
<path d="M480.769 346.423C480.769 345.123 478.173 345.811 478.048 345.604C477.848 345.279 480.769 347.619 480.769 346.423Z" stroke="#B2B2B2" stroke-width="1.28" stroke-miterlimit="10"/>
<path d="M477.828 334.008C477.61 334.391 480.595 338.746 479.365 339.252C480.513 338.78 479.488 333.951 480.632 334.514C482.787 335.575 480.395 338.566 483.296 336.308C481.76 337.504 483.37 328.349 484.544 330.927C484.704 331.278 477.998 333.039 479.672 330.301C481.501 327.313 485.574 330.732 487.177 327.415C486.209 329.418 482.226 326.971 480.901 327.867C478.831 329.265 478.98 331.971 477.828 334.008Z" stroke="#B2B2B2" stroke-width="1.28" stroke-miterlimit="10"/>
<path d="M491.653 335.114C491.707 335.29 495.188 336.174 495.559 336.174C497.187 336.173 490.862 332.512 491.653 335.114Z" stroke="#B2B2B2" stroke-width="1.28" stroke-miterlimit="10"/>
<path d="M491.873 327.558C491.873 324.325 489.192 330.989 491.652 330.495C493.33 330.162 491.873 327.494 491.873 327.558Z" stroke="#B2B2B2" stroke-width="1.28" stroke-miterlimit="10"/>
<path d="M486.931 345.592C487.688 344.6 490.224 344.461 490.556 343.487C490.747 342.929 486.661 344.739 486.281 344.781C485.692 344.879 484.014 346.143 485.069 346.76C485.906 346.749 486.527 346.36 486.931 345.592Z" stroke="#B2B2B2" stroke-width="1.28" stroke-miterlimit="10"/>
<path d="M488.624 335.21C488.799 335.981 490.073 336.413 490.423 335.74C490.774 335.065 488.421 334.317 488.624 335.21Z" stroke="#B2B2B2" stroke-width="1.28" stroke-miterlimit="10"/>
<path d="M315.53 258.403C315.128 259.165 316.044 263.489 317.723 261.362C319.11 259.607 316.586 256.408 315.53 258.403Z" stroke="#B2B2B2" stroke-width="1.28" stroke-miterlimit="10"/>
<path d="M325.096 263.576C325.408 263.501 321.719 263.249 322.046 264.225C322.17 264.603 324.882 266.275 325.271 266.296C325.191 266.292 326.153 263.905 326.28 263.672C325.969 263.356 325.574 263.324 325.096 263.576Z" stroke="#B2B2B2" stroke-width="1.28" stroke-miterlimit="10"/>
<path d="M485.264 175.206C477.336 175.206 470.909 181.633 470.909 189.562C470.909 196.722 484.151 213.597 484.151 213.597H485.263C485.263 213.597 499.618 197.489 499.618 189.562C499.62 181.633 493.193 175.206 485.264 175.206ZM485.264 196.571C481.392 196.571 478.254 193.432 478.254 189.56C478.254 185.688 481.392 182.55 485.264 182.55C489.136 182.55 492.275 185.688 492.275 189.56C492.275 193.432 489.136 196.571 485.264 196.571Z" fill="#263238" stroke="#263238" stroke-width="1.28" stroke-miterlimit="10" stroke-linecap="round" stroke-linejoin="round"/>
<path d="M165.074 290.979C160.679 290.979 157.115 294.542 157.115 298.938C157.115 302.908 164.457 312.264 164.457 312.264H165.074C165.074 312.264 173.033 303.333 173.033 298.938C173.033 294.542 169.47 290.979 165.074 290.979ZM165.074 302.825C162.928 302.825 161.187 301.086 161.187 298.938C161.187 296.791 162.926 295.05 165.074 295.05C167.221 295.05 168.962 296.791 168.962 298.938C168.962 301.084 167.221 302.825 165.074 302.825Z" fill="#263238" stroke="#263238" stroke-width="1.28" stroke-miterlimit="10" stroke-linecap="round" stroke-linejoin="round"/>
<path d="M406.268 182.453C401.457 182.453 397.557 186.353 397.557 191.164C397.557 195.51 405.594 205.751 405.594 205.751H406.27C406.27 205.751 414.981 195.976 414.981 191.164C414.98 186.353 411.08 182.453 406.268 182.453ZM406.268 195.419C403.918 195.419 402.014 193.514 402.014 191.164C402.014 188.814 403.918 186.909 406.268 186.909C408.618 186.909 410.523 188.814 410.523 191.164C410.523 193.514 408.618 195.419 406.268 195.419Z" fill="#263238" stroke="#263238" stroke-width="1.28" stroke-miterlimit="10" stroke-linecap="round" stroke-linejoin="round"/>
<path d="M197.965 344.722C194.365 344.722 191.448 347.639 191.448 351.238C191.448 354.49 197.46 362.15 197.46 362.15H197.966C197.966 362.15 204.483 354.838 204.483 351.238C204.481 347.639 201.563 344.722 197.965 344.722ZM197.965 354.422C196.207 354.422 194.783 352.997 194.783 351.24C194.783 349.482 196.207 348.058 197.965 348.058C199.722 348.058 201.147 349.482 201.147 351.24C201.147 352.996 199.722 354.422 197.965 354.422Z" fill="#263238" stroke="#263238" stroke-width="1.28" stroke-miterlimit="10" stroke-linecap="round" stroke-linejoin="round"/>
<path d="M467.835 254.511C463.023 254.511 459.123 258.412 459.123 263.223C459.123 267.569 467.16 277.81 467.16 277.81H467.836C467.836 277.81 476.548 268.035 476.548 263.223C476.546 258.412 472.646 254.511 467.835 254.511ZM467.835 267.478C465.485 267.478 463.58 265.573 463.58 263.223C463.58 260.873 465.485 258.968 467.835 258.968C470.185 258.968 472.089 260.873 472.089 263.223C472.089 265.572 470.185 267.478 467.835 267.478Z" fill="#263238" stroke="#263238" stroke-width="1.28" stroke-miterlimit="10" stroke-linecap="round" stroke-linejoin="round"/>
<path d="M508.707 343.213C503.895 343.213 499.995 347.113 499.995 351.924C499.995 356.27 508.032 366.511 508.032 366.511H508.708C508.708 366.511 517.42 356.736 517.42 351.924C517.42 347.113 513.518 343.213 508.707 343.213ZM508.707 356.179C506.357 356.179 504.452 354.275 504.452 351.924C504.452 349.574 506.357 347.67 508.707 347.67C511.057 347.67 512.962 349.574 512.962 351.924C512.962 354.273 511.057 356.179 508.707 356.179Z" fill="#263238" stroke="#263238" stroke-width="1.28" stroke-miterlimit="10" stroke-linecap="round" stroke-linejoin="round"/>
<path d="M161.721 241.439C156.91 241.439 153.01 245.339 153.01 250.15C153.01 254.496 161.047 264.737 161.047 264.737H161.723C161.723 264.737 170.434 254.962 170.434 250.15C170.434 245.339 166.533 241.439 161.721 241.439ZM161.721 254.405C159.371 254.405 157.467 252.5 157.467 250.15C157.467 247.8 159.371 245.896 161.721 245.896C164.072 245.896 165.976 247.8 165.976 250.15C165.976 252.5 164.072 254.405 161.721 254.405Z" fill="#263238" stroke="#263238" stroke-width="1.28" stroke-miterlimit="10" stroke-linecap="round" stroke-linejoin="round"/>
<path d="M333.625 177.198C328.813 177.198 324.913 181.098 324.913 185.91C324.913 190.255 332.949 200.497 332.949 200.497H333.625C333.625 200.497 342.336 190.721 342.336 185.91C342.336 181.1 338.436 177.198 333.625 177.198ZM333.625 190.165C331.275 190.165 329.37 188.26 329.37 185.91C329.37 183.56 331.275 181.655 333.625 181.655C335.975 181.655 337.879 183.56 337.879 185.91C337.879 188.26 335.975 190.165 333.625 190.165Z" fill="#263238" stroke="#263238" stroke-width="1.28" stroke-miterlimit="10" stroke-linecap="round" stroke-linejoin="round"/>
<path d="M100.185 183.351C95.3738 183.351 91.4736 187.251 91.4736 192.063C91.4736 196.408 99.5095 206.65 99.5095 206.65H100.185C100.185 206.65 108.897 196.874 108.897 192.063C108.897 187.251 104.997 183.351 100.185 183.351ZM100.185 196.317C97.8352 196.317 95.9306 194.413 95.9306 192.063C95.9306 189.713 97.8352 187.808 100.185 187.808C102.535 187.808 104.44 189.713 104.44 192.063C104.44 194.413 102.534 196.317 100.185 196.317Z" fill="#263238" stroke="#263238" stroke-width="1.28" stroke-miterlimit="10" stroke-linecap="round" stroke-linejoin="round"/>
<path d="M67.8408 407.101C67.8408 266.423 183.042 152.381 325.149 152.381C467.256 152.381 582.457 266.423 582.457 407.101" stroke="#263238" stroke-width="1.28" stroke-miterlimit="10" stroke-dasharray="3.84 3.84"/>
<path d="M601.405 406.836H476.943V506.298H601.405V406.836Z" fill="white" stroke="#263238" stroke-width="1.28" stroke-miterlimit="10"/>
<path d="M601.405 456.297H476.943V474.643H601.405V456.297Z" fill="#263238" stroke="#263238" stroke-width="1.28" stroke-miterlimit="10"/>
<path d="M547.021 471.231H531.331V506.298H547.021V471.231Z" fill="#263238" stroke="#263238" stroke-width="1.28" stroke-miterlimit="10"/>
<path d="M545.314 472.937H533.037V492.991H545.314V472.937Z" fill="white" stroke="#263238" stroke-width="1.28" stroke-miterlimit="10"/>
<path d="M604.666 402.488H473.683V445.969H604.666V402.488Z" fill="#D97706" stroke="#263238" stroke-width="1.28" stroke-miterlimit="10"/>
<path d="M567.164 447.599V416.927L538.084 394.88L511.184 416.927V447.599" fill="white"/>
<path d="M567.164 447.599V416.927L538.084 394.88L511.184 416.927V447.599" stroke="#263238" stroke-width="1.28" stroke-miterlimit="10"/>
<path d="M557.652 422.598H520.694V445.426H557.652V422.598Z" fill="white" stroke="#263238" stroke-width="1.28" stroke-miterlimit="10"/>
<path d="M552.552 422.598H525.796V445.426H552.552V422.598Z" fill="white" stroke="#263238" stroke-width="1.28" stroke-miterlimit="10"/>
<path d="M546.511 422.598H531.837V445.426H546.511V422.598Z" fill="white" stroke="#263238" stroke-width="1.28" stroke-miterlimit="10"/>
<path d="M538.501 422.877V445.356" stroke="#263238" stroke-width="1.28" stroke-miterlimit="10"/>
<path d="M521.052 427.461H557.432" stroke="#263238" stroke-width="1.28" stroke-miterlimit="10"/>
<path d="M521.052 431.948H557.432" stroke="#263238" stroke-width="1.28" stroke-miterlimit="10"/>
<path d="M521.052 436.433H557.432" stroke="#263238" stroke-width="1.28" stroke-miterlimit="10"/>
<path d="M521.052 440.919H557.432" stroke="#263238" stroke-width="1.28" stroke-miterlimit="10"/>
<path d="M558.072 471.231H550.227V506.298H558.072V471.231Z" fill="white" stroke="#263238" stroke-width="1.28" stroke-miterlimit="10"/>
<path d="M554.149 471.657V506.217" stroke="#263238" stroke-width="1.28" stroke-miterlimit="10"/>
<path d="M550.424 482.97H557.809" stroke="#263238" stroke-width="1.28" stroke-miterlimit="10"/>
<path d="M550.424 496.23H557.809" stroke="#263238" stroke-width="1.28" stroke-miterlimit="10"/>
<path d="M527.351 471.231H519.506V506.298H527.351V471.231Z" fill="white" stroke="#263238" stroke-width="1.28" stroke-miterlimit="10"/>
<path d="M523.429 471.657V506.217" stroke="#263238" stroke-width="1.28" stroke-miterlimit="10"/>
<path d="M519.703 482.97H527.089" stroke="#263238" stroke-width="1.28" stroke-miterlimit="10"/>
<path d="M519.703 496.23H527.089" stroke="#263238" stroke-width="1.28" stroke-miterlimit="10"/>
<path d="M591.819 470.805H572.192V497.685H591.819V470.805Z" fill="white" stroke="#263238" stroke-width="1.28" stroke-miterlimit="10"/>
<path d="M583.714 470.805H580.3V497.685H583.714V470.805Z" fill="white" stroke="#263238" stroke-width="1.28" stroke-miterlimit="10"/>
<path d="M572.302 477.532H591.37" stroke="#263238" stroke-width="1.28" stroke-miterlimit="10"/>
<path d="M572.302 484.393H591.37" stroke="#263238" stroke-width="1.28" stroke-miterlimit="10"/>
<path d="M572.302 491.255H591.37" stroke="#263238" stroke-width="1.28" stroke-miterlimit="10"/>
<path d="M504.353 470.805H484.727V497.685H504.353V470.805Z" fill="white" stroke="#263238" stroke-width="1.28" stroke-miterlimit="10"/>
<path d="M496.247 470.805H492.833V497.685H496.247V470.805Z" fill="white" stroke="#263238" stroke-width="1.28" stroke-miterlimit="10"/>
<path d="M484.836 477.532H503.904" stroke="#263238" stroke-width="1.28" stroke-miterlimit="10"/>
<path d="M484.836 484.393H503.904" stroke="#263238" stroke-width="1.28" stroke-miterlimit="10"/>
<path d="M484.836 491.255H503.904" stroke="#263238" stroke-width="1.28" stroke-miterlimit="10"/>
<path d="M506.06 420.884L538.084 394.88L571.34 420.031" stroke="#263238" stroke-width="2.56" stroke-miterlimit="10"/>
<path d="M566.033 501.097H512.316V506.298H566.033V501.097Z" fill="white" stroke="#263238" stroke-width="1.28" stroke-miterlimit="10"/>
<path d="M566.033 503.346H512.316V506.298H566.033V503.346Z" fill="white" stroke="#263238" stroke-width="1.28" stroke-miterlimit="10"/>
<path d="M516.727 457.577H511.181V506.298H516.727V457.577Z" fill="white" stroke="#263238" stroke-width="1.28" stroke-miterlimit="10"/>
<path d="M568.78 457.577H563.233V506.298H568.78V457.577Z" fill="white" stroke="#263238" stroke-width="1.28" stroke-miterlimit="10"/>
<path d="M604.666 454.121H473.683V466.621H604.666V454.121Z" fill="#D97706" stroke="#263238" stroke-width="1.28" stroke-miterlimit="10"/>
<path d="M164.256 402.458H41.5361V506.298H164.256V402.458Z" fill="#D97706" stroke="#263238" stroke-width="1.28" stroke-miterlimit="10" stroke-linecap="round" stroke-linejoin="round"/>
<path d="M164.256 470.234H41.5361V506.298H164.256V470.234Z" fill="#263238" stroke="#263238" stroke-width="1.28" stroke-miterlimit="10" stroke-linecap="round" stroke-linejoin="round"/>
<path d="M122.443 431.007H83.3496V506.298H122.443V431.007Z" fill="white" stroke="#263238" stroke-width="1.28" stroke-miterlimit="10" stroke-linecap="round" stroke-linejoin="round"/>
<path d="M118.308 431.007H86.1172V466.363H118.308V431.007Z" fill="white" stroke="#263238" stroke-width="1.28" stroke-miterlimit="10" stroke-linecap="round" stroke-linejoin="round"/>
<path d="M118.308 468.685H86.1172V504.041H118.308V468.685Z" fill="white" stroke="#263238" stroke-width="1.28" stroke-miterlimit="10" stroke-linecap="round" stroke-linejoin="round"/>
<path d="M121.147 468.04C121.147 469.394 120.048 470.491 118.695 470.491C117.342 470.491 116.244 469.394 116.244 468.04C116.244 466.685 117.341 465.588 118.695 465.588C120.05 465.588 121.147 466.685 121.147 468.04Z" fill="white" stroke="#263238" stroke-width="1.28" stroke-miterlimit="10" stroke-linecap="round" stroke-linejoin="round"/>
<path d="M117.792 442.362L103.412 456.959" stroke="#263238" stroke-width="0.64" stroke-miterlimit="10" stroke-linecap="round" stroke-linejoin="round"/>
<path d="M107.212 446.232L92.8311 460.829" stroke="#263238" stroke-width="0.64" stroke-miterlimit="10" stroke-linecap="round" stroke-linejoin="round"/>
<path d="M117.792 476.426L103.412 491.023" stroke="#263238" stroke-width="0.64" stroke-miterlimit="10" stroke-linecap="round" stroke-linejoin="round"/>
<path d="M107.212 480.298L92.8311 494.894" stroke="#263238" stroke-width="0.64" stroke-miterlimit="10" stroke-linecap="round" stroke-linejoin="round"/>
<path d="M161.405 431.007H130.695V475.653H161.405V431.007Z" fill="white" stroke="#263238" stroke-width="1.28" stroke-miterlimit="10" stroke-linecap="round" stroke-linejoin="round"/>
<path d="M158.825 443.393L144.445 457.99" stroke="#263238" stroke-width="0.64" stroke-miterlimit="10" stroke-linecap="round" stroke-linejoin="round"/>
<path d="M148.244 447.265L133.864 461.861" stroke="#263238" stroke-width="0.64" stroke-miterlimit="10" stroke-linecap="round" stroke-linejoin="round"/>
<path d="M74.4373 431.007H43.7275V475.653H74.4373V431.007Z" fill="white" stroke="#263238" stroke-width="1.28" stroke-miterlimit="10" stroke-linecap="round" stroke-linejoin="round"/>
<path d="M70.568 443.393L56.1885 457.99" stroke="#263238" stroke-width="0.64" stroke-miterlimit="10" stroke-linecap="round" stroke-linejoin="round"/>
<path d="M59.985 447.265L45.6055 461.861" stroke="#263238" stroke-width="0.64" stroke-miterlimit="10" stroke-linecap="round" stroke-linejoin="round"/>
<path d="M43.5836 437.425H42.9923C39.4313 437.425 36.5449 434.538 36.5449 430.977V419.348H50.0323V430.977C50.031 434.538 47.1446 437.425 43.5836 437.425Z" fill="#D97706"/>
<mask id="mask0_18_2191" style="mask-type:luminance" maskUnits="userSpaceOnUse" x="36" y="419" width="15" height="19">
<path d="M43.5836 437.425H42.9923C39.4313 437.425 36.5449 434.538 36.5449 430.977V419.348H50.0323V430.977C50.031 434.538 47.1446 437.425 43.5836 437.425Z" fill="white"/>
</mask>
<g mask="url(#mask0_18_2191)">
<path opacity="0.3" d="M43.5836 437.425H42.9923C39.4313 437.425 36.5449 434.538 36.5449 430.977V419.348H50.0323V430.977C50.031 434.538 47.1446 437.425 43.5836 437.425Z" fill="#333333"/>
</g>
<path d="M43.5836 437.425H42.9923C39.4313 437.425 36.5449 434.538 36.5449 430.977V419.348H50.0323V430.977C50.031 434.538 47.1446 437.425 43.5836 437.425Z" stroke="#263238" stroke-width="1.28" stroke-miterlimit="10" stroke-linecap="round" stroke-linejoin="round"/>
<path d="M56.7731 437.425H56.1817C52.6208 437.425 49.7344 434.538 49.7344 430.977V419.348H63.2217V430.977C63.2205 434.538 60.3341 437.425 56.7731 437.425Z" fill="#B2B2B2" stroke="#263238" stroke-width="1.28" stroke-miterlimit="10" stroke-linecap="round" stroke-linejoin="round"/>
<path d="M69.9655 437.425H69.3741C65.8132 437.425 62.9268 434.538 62.9268 430.977V419.349H76.4141V430.977C76.4128 434.538 73.5264 437.425 69.9655 437.425Z" fill="#D97706"/>
<mask id="mask1_18_2191" style="mask-type:luminance" maskUnits="userSpaceOnUse" x="62" y="419" width="15" height="19">
<path d="M69.9635 437.425H69.3722C65.8112 437.425 62.9248 434.538 62.9248 430.977V419.349H76.4122V430.977C76.4109 434.538 73.5245 437.425 69.9635 437.425Z" fill="white"/>
</mask>
<g mask="url(#mask1_18_2191)">
<path opacity="0.3" d="M69.9635 437.425H69.3722C65.8112 437.425 62.9248 434.538 62.9248 430.977V419.349H76.4122V430.977C76.4109 434.538 73.5245 437.425 69.9635 437.425Z" fill="#333333"/>
</g>
<path d="M69.9655 437.425H69.3741C65.8132 437.425 62.9268 434.538 62.9268 430.977V419.349H76.4141V430.977C76.4128 434.538 73.5264 437.425 69.9655 437.425Z" stroke="#263238" stroke-width="1.28" stroke-miterlimit="10" stroke-linecap="round" stroke-linejoin="round"/>
<path d="M83.1549 437.425H82.5636C79.0026 437.425 76.1162 434.538 76.1162 430.977V419.348H89.6036V430.977C89.6023 434.538 86.7146 437.425 83.1549 437.425Z" fill="#B2B2B2" stroke="#263238" stroke-width="1.28" stroke-miterlimit="10" stroke-linecap="round" stroke-linejoin="round"/>
<path d="M96.3434 437.425H95.7521C92.1911 437.425 89.3047 434.538 89.3047 430.977V419.348H102.792V430.977C102.791 434.538 99.9044 437.425 96.3434 437.425Z" fill="#D97706"/>
<mask id="mask2_18_2191" style="mask-type:luminance" maskUnits="userSpaceOnUse" x="89" y="419" width="14" height="19">
<path d="M96.3434 437.425H95.7521C92.1911 437.425 89.3047 434.538 89.3047 430.977V419.348H102.792V430.977C102.791 434.538 99.9044 437.425 96.3434 437.425Z" fill="white"/>
</mask>
<g mask="url(#mask2_18_2191)">
<path opacity="0.3" d="M96.3434 437.425H95.7521C92.1911 437.425 89.3047 434.538 89.3047 430.977V419.348H102.792V430.977C102.791 434.538 99.9044 437.425 96.3434 437.425Z" fill="#333333"/>
</g>
<path d="M96.3434 437.425H95.7521C92.1911 437.425 89.3047 434.538 89.3047 430.977V419.348H102.792V430.977C102.791 434.538 99.9044 437.425 96.3434 437.425Z" stroke="#263238" stroke-width="1.28" stroke-miterlimit="10" stroke-linecap="round" stroke-linejoin="round"/>
<path d="M109.536 437.425H108.944C105.383 437.425 102.497 434.538 102.497 430.977V419.348H115.984V430.977C115.983 434.538 113.097 437.425 109.536 437.425Z" fill="#B2B2B2" stroke="#263238" stroke-width="1.28" stroke-miterlimit="10" stroke-linecap="round" stroke-linejoin="round"/>
<path d="M122.725 437.425H122.134C118.573 437.425 115.687 434.538 115.687 430.977V419.348H129.174V430.977C129.173 434.538 126.286 437.425 122.725 437.425Z" fill="#D97706"/>
<mask id="mask3_18_2191" style="mask-type:luminance" maskUnits="userSpaceOnUse" x="115" y="419" width="15" height="19">
<path d="M122.725 437.425H122.134C118.573 437.425 115.687 434.538 115.687 430.977V419.348H129.174V430.977C129.173 434.538 126.286 437.425 122.725 437.425Z" fill="white"/>
</mask>
<g mask="url(#mask3_18_2191)">
<path opacity="0.3" d="M122.725 437.425H122.134C118.573 437.425 115.687 434.538 115.687 430.977V419.348H129.174V430.977C129.173 434.538 126.286 437.425 122.725 437.425Z" fill="#333333"/>
</g>
<path d="M122.725 437.425H122.134C118.573 437.425 115.687 434.538 115.687 430.977V419.348H129.174V430.977C129.173 434.538 126.286 437.425 122.725 437.425Z" stroke="#263238" stroke-width="1.28" stroke-miterlimit="10" stroke-linecap="round" stroke-linejoin="round"/>
<path d="M135.915 437.425H135.323C131.762 437.425 128.876 434.538 128.876 430.977V419.348H142.363V430.977C142.362 434.538 139.476 437.425 135.915 437.425Z" fill="#B2B2B2" stroke="#263238" stroke-width="1.28" stroke-miterlimit="10" stroke-linecap="round" stroke-linejoin="round"/>
<path d="M149.105 437.425H148.514C144.953 437.425 142.066 434.538 142.066 430.977V419.348H155.554V430.977C155.554 434.538 152.667 437.425 149.105 437.425Z" fill="#D97706"/>
<mask id="mask4_18_2191" style="mask-type:luminance" maskUnits="userSpaceOnUse" x="142" y="419" width="14" height="19">
<path d="M149.107 437.425H148.516C144.955 437.425 142.068 434.538 142.068 430.977V419.349H155.556V430.977C155.556 434.538 152.669 437.425 149.107 437.425Z" fill="white"/>
</mask>
<g mask="url(#mask4_18_2191)">
<path opacity="0.3" d="M149.107 437.425H148.516C144.955 437.425 142.068 434.538 142.068 430.977V419.349H155.556V430.977C155.556 434.538 152.669 437.425 149.107 437.425Z" fill="#333333"/>
</g>
<path d="M149.105 437.425H148.514C144.953 437.425 142.066 434.538 142.066 430.977V419.348H155.554V430.977C155.554 434.538 152.667 437.425 149.105 437.425Z" stroke="#263238" stroke-width="1.28" stroke-miterlimit="10" stroke-linecap="round" stroke-linejoin="round"/>
<path d="M162.296 437.425H161.704C158.143 437.425 155.257 434.538 155.257 430.977V419.348H168.744V430.977C168.743 434.538 165.857 437.425 162.296 437.425Z" fill="#B2B2B2" stroke="#263238" stroke-width="1.28" stroke-miterlimit="10" stroke-linecap="round" stroke-linejoin="round"/>
<path d="M50.0323 402.121H36.5449V420.197H50.0323V402.121Z" fill="#D97706" stroke="#263238" stroke-width="1.28" stroke-miterlimit="10" stroke-linecap="round" stroke-linejoin="round"/>
<path d="M63.2208 402.121H49.7334V420.197H63.2208V402.121Z" fill="white" stroke="#263238" stroke-width="1.28" stroke-miterlimit="10" stroke-linecap="round" stroke-linejoin="round"/>
<path d="M76.4131 402.121H62.9258V420.197H76.4131V402.121Z" fill="#D97706" stroke="#263238" stroke-width="1.28" stroke-miterlimit="10" stroke-linecap="round" stroke-linejoin="round"/>
<path d="M89.6026 402.121H76.1152V420.197H89.6026V402.121Z" fill="white" stroke="#263238" stroke-width="1.28" stroke-miterlimit="10" stroke-linecap="round" stroke-linejoin="round"/>
<path d="M102.792 402.121H89.3047V420.197H102.792V402.121Z" fill="#D97706" stroke="#263238" stroke-width="1.28" stroke-miterlimit="10" stroke-linecap="round" stroke-linejoin="round"/>
<path d="M115.984 402.121H102.497V420.197H115.984V402.121Z" fill="white" stroke="#263238" stroke-width="1.28" stroke-miterlimit="10" stroke-linecap="round" stroke-linejoin="round"/>
<path d="M129.173 402.121H115.686V420.197H129.173V402.121Z" fill="#D97706" stroke="#263238" stroke-width="1.28" stroke-miterlimit="10" stroke-linecap="round" stroke-linejoin="round"/>
<path d="M142.362 402.121H128.875V420.197H142.362V402.121Z" fill="white" stroke="#263238" stroke-width="1.28" stroke-miterlimit="10" stroke-linecap="round" stroke-linejoin="round"/>
<path d="M155.553 402.121H142.065V420.197H155.553V402.121Z" fill="#D97706" stroke="#263238" stroke-width="1.28" stroke-miterlimit="10" stroke-linecap="round" stroke-linejoin="round"/>
<path d="M168.744 402.121H155.257V420.197H168.744V402.121Z" fill="white" stroke="#263238" stroke-width="1.28" stroke-miterlimit="10" stroke-linecap="round" stroke-linejoin="round"/>
<path d="M369.725 97.8765C371.838 97.7664 373.493 96.0141 373.481 93.8969C373.469 91.3677 371.389 89.239 368.861 89.1661L347.972 88.5645L347.533 88.5888L338.628 76.8998L341.892 76.6643C342.886 76.5926 343.729 75.8195 343.78 74.8262C343.84 73.6755 342.9 72.7385 341.766 72.7846L335.678 73.0265L328.981 64.2368L333.531 63.9091C334.55 63.8361 335.337 62.9849 335.332 61.9635C336.072 61.216 335.514 59.9475 334.462 59.9897L326.001 60.3264L321.559 54.4973C319.907 52.3277 317.373 51.008 314.647 50.8992L312.478 50.8121L322.144 71.2025C322.144 71.2025 328.523 84.2381 323.618 89.8905L300.044 91.1718L299.733 91.2205L290.274 78.8697L284.683 78.3117L289.255 92.8653L286.649 93.2749C286.397 93.3145 286.381 93.6717 286.629 93.7318L289.486 94.4307L284.698 109.343L290.873 109.016L299.092 96.7782L299.633 96.9101L321.261 97.8445C324.072 98.7891 328.212 101.079 326.741 106.179C324.575 113.69 312.64 137.283 312.64 137.283L316.292 136.678C318.667 136.285 320.805 135.009 322.28 133.106L326.503 127.653L333.481 127.151C334.475 127.08 335.318 126.307 335.369 125.313C335.428 124.163 334.489 123.226 333.355 123.272L329.787 123.414L335.995 115.398L342.976 114.895C343.97 114.824 344.813 114.051 344.864 113.057C344.923 111.907 343.984 110.97 342.85 111.016L339.281 111.158L348.713 98.9785L369.725 97.8765Z" fill="#263238"/>
<path d="M242.657 251.969L272.142 231.044L253.225 199.062L152.228 178.89L141.66 231.798L242.657 251.969Z" fill="white" stroke="#263238" stroke-width="1.28" stroke-miterlimit="10"/>
<path d="M272.143 231.044C272.143 231.044 275.714 242.314 291.852 242.314C307.989 242.314 306.052 231.341 337.681 228.759C369.31 226.177 388.029 259.096 388.029 259.096" stroke="#263238" stroke-width="1.28" stroke-miterlimit="10"/>
<path d="M410.869 313.618H233.171V428.86H410.869V313.618Z" fill="#D97706" stroke="#263238" stroke-width="1.28" stroke-miterlimit="10" stroke-linecap="round" stroke-linejoin="round"/>
<path d="M410.869 313.618H233.171L262.249 259.387H439.947L410.869 313.618Z" fill="#D97706" stroke="#263238" stroke-width="1.28" stroke-miterlimit="10" stroke-linecap="round" stroke-linejoin="round"/>
<path d="M248.674 285.846H249.954" stroke="#263238" stroke-width="1.28" stroke-miterlimit="10"/>
<path d="M252.484 285.846H423.327" stroke="#263238" stroke-width="1.28" stroke-miterlimit="10" stroke-dasharray="2.53 2.53"/>
<path d="M424.594 285.846H425.874" stroke="#263238" stroke-width="1.28" stroke-miterlimit="10"/>
<path d="M439.948 259.387V372.78L410.87 428.86V313.618L439.948 259.387Z" fill="#D97706"/>
<mask id="mask5_18_2191" style="mask-type:luminance" maskUnits="userSpaceOnUse" x="410" y="259" width="30" height="170">
<path d="M439.949 259.387V372.78L410.871 428.86V313.618L439.949 259.387Z" fill="white"/>
</mask>
<g mask="url(#mask5_18_2191)">
<path opacity="0.2" d="M439.949 259.387V372.78L410.871 428.86V313.618L439.949 259.387Z" fill="#333333"/>
</g>
<path d="M439.948 259.387V372.78L410.87 428.86V313.618L439.948 259.387Z" stroke="#263238" stroke-width="1.28" stroke-miterlimit="10" stroke-linecap="round" stroke-linejoin="round"/>
<path d="M305.387 313.618H330.772L358.08 259.387H332.696L305.387 313.618Z" fill="white" stroke="#263238" stroke-width="1.28" stroke-miterlimit="10"/>
<path d="M330.956 361.687L318.494 352.692L305.387 361.687V313.618H330.956V361.687Z" fill="white" stroke="#263238" stroke-width="1.28" stroke-miterlimit="10"/>
<path d="M224.075 260.388H215.685" stroke="#263238" stroke-width="1.28" stroke-miterlimit="10"/>
<path d="M255.702 260.388H230.528" stroke="#263238" stroke-width="1.28" stroke-miterlimit="10"/>
<path d="M230.529 312.672H190.509" stroke="#263238" stroke-width="1.28" stroke-miterlimit="10"/>
<path d="M196.319 364.311H190.509" stroke="#263238" stroke-width="1.28" stroke-miterlimit="10"/>
<path d="M230.53 364.311H202.774" stroke="#263238" stroke-width="1.28" stroke-miterlimit="10"/>
<path d="M230.528 335.264H211.163" stroke="#263238" stroke-width="1.28" stroke-miterlimit="10"/>
<path d="M249.248 276.525H229.884" stroke="#263238" stroke-width="1.28" stroke-miterlimit="10"/>
<path d="M230.528 406.913H211.163" stroke="#263238" stroke-width="1.28" stroke-miterlimit="10"/>
<path d="M-0.000976562 506L639.999 506" stroke="#263238" stroke-width="1.28" stroke-miterlimit="10"/>
</g>
<defs>
<clipPath id="clip0_18_2191">
<rect width="640" height="608" fill="white"/>
</clipPath>
</defs>
</svg>
