<svg width="191" height="121" viewBox="0 0 191 121" fill="none" xmlns="http://www.w3.org/2000/svg">
<path d="M183.374 46.2419C178.83 48.5955 174.287 50.9493 169.383 53.4896C172.63 53.7066 175.376 52.6098 178.153 52.0827C180.269 51.6811 181.04 52.2234 181.301 54.1491C181.571 56.1516 182.095 58.1147 182.521 60.092C182.606 60.4842 182.835 60.9585 183.255 60.8536C183.518 60.7882 183.812 60.2303 183.837 59.8845C184.153 55.5532 184.422 51.2202 184.703 46.8878C184.704 45.8711 184.208 45.7513 183.374 46.2419Z" fill="#D97706"/>
<path d="M62.8138 81.8813C63.1049 81.4657 63.3858 81.1565 63.5579 80.8016C64.0324 79.8237 63.8997 78.7399 62.96 78.3738C62.1608 78.0625 61.1524 78.6714 60.8484 79.62C60.3954 81.0338 58.3421 81.9042 58.9238 83.5313C59.5313 85.2306 61.5474 83.8032 62.7908 84.5725C63.5933 85.0692 64.8176 84.9664 65.8569 85.1098C66.669 85.222 67.7125 85.2856 67.9282 84.4112C68.1734 83.4167 67.4553 82.5666 66.4131 82.3204C65.3321 82.0654 64.1851 82.0374 62.8138 81.8813Z" fill="#D97706"/>
<path d="M116.637 70.9174C116.793 71.5542 117.374 71.7014 117.902 71.8753C118.433 72.0499 119.011 72.1078 119.529 72.3052C122.505 73.4394 123.641 73.0582 125.908 70.5814C126.741 69.6707 126.529 68.9573 125.978 68.3297C125.404 67.6765 124.623 67.9901 124.094 68.6207C122.698 70.2856 121.158 70.1285 119.424 69.298C118.637 68.9212 117.739 69.0427 116.947 69.6698C116.451 70.0625 116.464 70.4487 116.637 70.9174Z" fill="#D97706"/>
<path d="M15.6438 103.187C16.2496 104.528 21.5701 105.258 22.301 104.302C22.9562 103.446 22.5546 102.456 21.6965 102.217C20.2918 101.827 18.7654 101.723 17.2781 101.681C16.1343 101.648 15.5187 102.302 15.6438 103.187Z" fill="#D97706"/>
<path d="M89.0869 50.9845C89.253 52.0348 90.0291 52.846 90.6188 53.7466C91.0973 54.4773 91.9764 54.4032 92.4711 53.9172C92.8682 53.527 93.986 52.9653 92.8348 52.0676C92.2686 51.6261 91.8003 50.791 91.7495 50.0884C91.6451 48.6436 90.9675 47.7581 89.5477 48.1963C87.9563 48.6872 88.681 49.9279 89.0869 50.9845Z" fill="#D97706"/>
<path d="M173.929 60.2619C174.641 61.8528 175.776 61.2529 176.273 60.7748C177.405 59.6869 178.362 58.3876 178.896 56.9042C179.157 56.1778 178.931 55.5027 178.221 55.1109C177.523 54.7257 176.977 55.1138 176.555 55.6357C175.354 57.1229 174.344 58.7018 173.929 60.2619Z" fill="#D97706"/>
<path d="M64.1592 70.5709C64.0833 69.2558 62.7357 68.7134 62.0635 67.7361C61.6314 67.1077 60.6521 67.2642 60.0677 67.7923C59.463 68.339 59.4434 68.9935 60.0908 69.6386C60.6365 70.1823 61.1535 70.8208 61.4452 71.5156C61.9061 72.6134 62.3955 73.6142 63.8704 73.1054C65.7215 72.4668 64.0407 71.4719 64.1592 70.5709Z" fill="#D97706"/>
<path d="M87.4641 41.7142C87.6573 42.7359 88.1696 43.0678 88.7405 43.0051C89.2901 42.9445 89.9709 42.9221 90.1059 42.0159C90.3176 40.594 90.7496 39.1957 91.0741 37.7849C91.2098 37.1948 91.0578 36.7111 90.4527 36.446C89.6712 36.1038 88.8365 36.3793 88.498 36.9538C87.5602 38.5452 87.5354 40.3357 87.4641 41.7142Z" fill="#D97706"/>
<path d="M41.4783 99.8425C43.1983 98.9512 44.2907 98.3006 45.4515 97.8075C46.5986 97.3202 46.4741 96.4319 46.1141 95.7786C45.7654 95.1453 44.8495 94.7296 44.1295 95.4149C43.1611 96.3365 41.7853 96.459 40.7725 97.349C40.1353 97.9088 39.2913 98.2648 39.7778 99.1149C40.2447 99.9313 41.1418 100.071 41.4783 99.8425Z" fill="#D97706"/>
<path d="M30.2778 101.14C29.8081 101.305 29.2764 101.527 28.7254 101.677C27.8104 101.925 28.0024 102.729 28.0193 103.215C28.0359 103.688 28.5829 104.085 29.2854 103.973C30.8984 103.715 32.4918 103.399 34.0272 102.804C34.7045 102.541 35.1471 102.159 35.0702 101.428C34.9715 100.49 34.0782 100.345 33.4437 100.391C32.406 100.466 31.3822 100.861 30.2778 101.14Z" fill="#D97706"/>
<path d="M49.5232 80.1209C49.9511 81.1592 54.2641 82.6454 55.3721 82.3043C56.1619 82.0611 55.9524 81.4927 56.1539 81.0445C56.3637 80.5778 56.1745 80.3555 55.7399 80.1676C54.4998 79.6313 53.262 79.0867 52.0527 78.493C51.1773 78.0635 50.462 78.532 49.7657 78.895C49.2444 79.1666 49.6438 79.7328 49.5232 80.1209Z" fill="#D97706"/>
<path d="M95.743 26.5976C94.1872 27.4396 93.2765 28.7807 92.2409 30.01C91.7639 30.5762 92.0101 31.1127 92.3187 31.5201C92.6579 31.9681 93.2935 32.1879 93.8477 31.8255C95.4267 30.7926 96.7692 29.51 97.5684 27.8305C97.8065 27.3301 97.4608 26.7147 97.0055 26.4005C96.5963 26.1184 96.067 26.2082 95.743 26.5976Z" fill="#D97706"/>
<path d="M138.93 35.6228C138.658 35.9441 138.055 36.3393 138.002 36.7784C137.824 38.2403 137.848 39.7179 137.786 41.1894C137.75 42.0413 138.369 42.2154 139.047 42.2818C139.875 42.3629 140.205 41.9084 140.286 41.1649C140.443 39.6993 140.728 38.2367 140.785 36.772C140.823 35.8104 140.138 35.3958 138.93 35.6228Z" fill="#D97706"/>
<path d="M126.13 19.6184C126.491 19.8121 126.874 20.1524 127.315 20.228C128.514 20.4335 129.707 20.5798 130.838 21.0668C131.549 21.3726 132.432 21.0442 132.826 20.4731C133.284 19.8073 132.789 18.8828 132.244 18.6316C130.726 17.9322 129.078 17.3492 127.309 17.6898C126.394 17.8663 125.986 18.5838 126.13 19.6184Z" fill="#D97706"/>
<path d="M142.289 72.7644C141.433 73.0945 140.723 73.1705 140.898 74.0967C141.048 74.8897 141.374 75.3377 142.299 75.2832C143.733 75.1989 145.169 75.1956 146.604 75.1117C147.58 75.0546 147.917 74.3245 148.018 73.5631C148.121 72.7949 147.257 72.4866 146.827 72.4814C145.23 72.462 143.623 72.665 142.289 72.7644Z" fill="#D97706"/>
<path d="M114.299 36.1678C115.455 35.8419 116.331 35.1455 116.773 34.0926C117.095 33.3243 116.96 32.5013 116.246 31.972C115.404 31.3479 114.916 32.0798 114.464 32.6116C113.972 33.19 113.377 33.5423 112.653 33.7726C111.696 34.0769 110.62 34.4094 111.139 35.7029C111.589 36.8251 112.609 36.6668 113.598 36.4109C113.837 36.3493 114.066 36.25 114.299 36.1678Z" fill="#D97706"/>
<path d="M107.262 29.4396C106.321 28.4305 105.34 27.3459 104.321 26.2959C103.643 25.5966 102.917 26.0616 102.4 26.5211C101.908 26.9593 101.736 27.6066 102.308 28.1772C103.287 29.1541 104.318 30.0909 105.208 31.1387C105.896 31.9479 106.537 31.4222 107.133 31.1439C108.052 30.7144 107.391 30.0911 107.262 29.4396Z" fill="#D97706"/>
<path d="M100.559 62.7066C101.485 62.3321 101.363 61.6742 100.987 60.9949C100.219 59.6064 98.6894 58.9557 97.5788 57.8927C97.0612 57.3972 96.0954 57.8658 95.5838 58.3841C95.0534 58.9216 95.2707 59.4686 95.8792 59.9515C96.7936 60.677 97.627 61.4983 98.4621 62.3098C99.0527 62.884 99.7695 62.8088 100.559 62.7066Z" fill="#D97706"/>
<path d="M139.218 26.6474C138.071 26.1338 139.198 23.5121 136.852 24.2953C134.4 25.1139 136.099 26.6222 136.542 27.7064C137.005 28.8374 136.998 31.0935 139.052 30.2483C140.898 29.4884 139.115 27.9431 139.218 26.6474Z" fill="#D97706"/>
<path d="M128.688 73.8765C128.738 74.1994 129.225 74.4833 129.811 74.5508C131.157 74.7059 132.514 74.7943 133.865 74.914C134.536 74.9735 135.238 75.0382 135.368 74.1523C135.491 73.314 135.256 72.4262 134.372 72.2755C132.861 72.0178 131.292 71.9681 129.742 71.957C128.669 71.9493 128.383 72.6394 128.688 73.8765Z" fill="#D97706"/>
<path d="M103.863 82.6151C104.317 82.531 105.25 82.357 104.824 81.1038C104.48 80.091 103.757 79.8687 102.722 80.1754C101.631 80.4991 100.523 80.7656 99.4248 81.0674C98.576 81.3007 97.8571 81.6455 98.0983 82.6878C98.3277 83.6788 99.0652 83.83 99.9596 83.6204C101.115 83.3495 102.26 83.0306 103.863 82.6151Z" fill="#D97706"/>
<path d="M131.092 64.4676C132.101 64.0683 134.237 60.5896 134.093 59.5436C133.869 57.9155 132.552 58.423 132.008 59.0061C130.923 60.169 130.159 61.6095 129.293 62.9521C128.979 63.4374 129.325 63.8225 129.572 64.221C129.983 64.8873 130.623 64.2775 131.092 64.4676Z" fill="#D97706"/>
<path d="M73.7329 85.6424C73.7493 85.6748 74.2596 85.8906 74.8451 85.9213C76.1382 85.9892 77.4387 86.1072 78.729 86.0193C79.356 85.9768 80.3559 85.9441 80.2963 84.9005C80.2499 84.0882 79.9538 83.3801 78.8939 83.3661C77.6221 83.3493 76.3474 83.2364 75.0802 83.3243C74.0246 83.3974 73.0838 83.784 73.7329 85.6424Z" fill="#D97706"/>
<path d="M134.917 52.9038C135.187 53.4051 135.353 53.9098 135.898 53.9226C136.556 53.9382 137.511 53.7076 137.599 53.2076C137.875 51.6377 139.047 50.251 138.767 48.5926C138.691 48.1436 138.604 47.5212 138.107 47.4784C137.598 47.4346 136.73 47.6094 136.561 47.9342C135.732 49.5269 135.141 51.2153 134.917 52.9038Z" fill="#D97706"/>
<path d="M117.181 25.6553C117.392 26.7796 117.796 27.0514 118.3 27.0903C118.962 27.1413 119.857 26.9497 119.926 26.3547C120.079 25.0471 120.888 24.0558 121.405 22.93C121.811 22.0462 121.601 21.3862 120.784 20.965C119.801 20.4582 119.242 21.0693 118.883 21.8652C118.242 23.2891 117.097 24.5642 117.181 25.6553Z" fill="#D97706"/>
<path d="M50.5389 64.4963C49.3854 65.0344 48.1297 65.025 48.3532 66.2288C48.6017 67.5679 49.7071 67.1746 50.7763 67.1385C51.8182 67.1034 52.7384 66.5155 53.8403 66.7338C54.6447 66.8932 55.1874 66.3869 55.3964 65.4011C55.6869 64.0307 54.1916 64.0707 53.9716 64.0913C52.6998 64.211 51.3548 64.0455 50.5389 64.4963Z" fill="#D97706"/>
<path d="M45.4099 74.0201C44.6043 73.181 45.1516 72.1942 45.0066 71.3115C44.918 70.7723 44.9491 69.9136 44.1098 69.8912C43.362 69.8712 42.7175 70.251 42.4297 71.0516C41.914 72.4851 42.0555 73.8449 42.7872 75.1067C43.2691 75.9381 44.0169 76.6129 45.1154 76.1573C46.4655 75.5975 45.4921 74.732 45.4099 74.0201Z" fill="#D97706"/>
<path d="M52.8534 92.6113C53.5957 91.9858 54.8861 91.2698 55.6335 89.9848C56.0276 89.3073 56.2266 88.6323 55.4814 88.1188C54.7908 87.6431 54.1516 87.834 53.5301 88.4169C52.7192 89.1774 51.8521 89.8842 50.9915 90.5939C50.2889 91.1733 49.9028 91.8352 50.4802 92.615C50.9845 93.2963 51.7114 93.1993 52.8534 92.6113Z" fill="#D97706"/>
<path d="M105.278 65.9604C105.648 66.9809 110.08 69.1519 110.828 68.8033C112.374 68.0826 111.753 66.9667 110.976 66.384C109.782 65.4875 108.332 64.8531 106.769 64.6305C105.489 64.4484 105.326 65.2827 105.278 65.9604Z" fill="#D97706"/>
<path d="M91.2774 85.2178C92.1539 84.8653 92.9886 84.7626 92.6407 83.7052C92.4029 82.9824 92.1772 82.4307 91.1755 82.6152C89.7259 82.8822 88.2576 83.0339 86.8046 83.2832C86.0513 83.4126 85.6264 83.9267 85.7405 84.6457C85.8519 85.3478 86.3693 85.703 87.144 85.6288C88.5945 85.4895 90.0445 85.3408 91.2774 85.2178Z" fill="#D97706"/>
<path d="M113.539 75.7685C112.592 76.301 111.677 76.8393 110.739 77.3361C109.96 77.7491 109.633 78.3206 110.045 79.0734C110.392 79.7065 111.018 79.7956 111.71 79.5277C112.777 79.1137 113.884 78.7723 114.899 78.2569C115.887 77.755 116.67 76.9205 116.08 75.8129C115.363 74.4645 114.415 75.9723 113.539 75.7685Z" fill="#D97706"/>
<path d="M167.391 68.8933C168.064 68.5344 169.298 68.03 170.329 67.2685C170.942 66.8152 171.196 65.9323 170.738 65.1631C170.331 64.4801 169.653 64.525 169.048 64.8877C167.743 65.6709 166.454 66.4882 165.214 67.3647C164.705 67.7248 164.607 68.3426 164.966 68.8525C165.463 69.5578 166.177 69.4673 167.391 68.8933Z" fill="#D97706"/>
<path d="M159.791 72.2285C160.277 71.3088 159.886 70.5175 159.022 70.4088C157.035 70.1592 155.272 71.1906 153.487 71.9114C152.935 72.1342 153.091 72.7197 153.283 73.162C153.632 73.9616 154.34 73.9945 155.113 73.8624C156.748 73.5332 158.301 72.9713 159.791 72.2285Z" fill="#D97706"/>
</svg>
